<svg viewBox="0 0 392.25867 147.82533" xmlns="http://www.w3.org/2000/svg" xmlns:xlink="http://www.w3.org/1999/xlink"><clipPath id="a"><path d="m0 110.869h294.194v-110.869h-294.194z"/></clipPath><g clip-path="url(#a)" transform="matrix(1.3333333 0 0 -1.3333333 0 147.82533)"><path d="m0 0c-3.072-.184-6.098-1.94-7.982-3.276v1.892c0 .641-.518 1.151-1.16 1.151h-4.644c-.641 0-1.158-.51-1.158-1.151v-28.14c0-.641.517-1.156 1.158-1.156h4.644c.642 0 1.16.515 1.16 1.156v19.449c1.048.873 4.292 3.308 8.158 3.648.594.053 1.054.552 1.054 1.152v4.123c0 .321-.127.622-.366.837-.229.224-.548.345-.864.315m-36.249-17.492c-2.731-.258-4.03-1.506-4.03-3.91 0-1.478.409-3.974 3.116-3.974 3.214 0 7.581 1.214 7.627 1.227v7.014zm13.671 7.684v-20.19c0-.337-.148-.656-.396-.874-.258-.22-.594-.319-.921-.273-2.362.333-3.487 1.072-4.605 1.929-.047-.019-5.275-2.13-9.944-2.13-5.624 0-8.851 3.551-8.851 9.754 0 6.06 2.952 8.74 10.195 9.28l7.564.609v1.835c0 2.323-1.38 3.66-3.785 3.66-3.312 0-8.04-.389-10.562-.615-.314-.034-.634.068-.873.279-.233.204-.379.506-.39.82l-.151 3.86c-.024.589.396 1.1.972 1.187 2.253.359 7.866 1.177 11.371 1.177 7.081 0 10.376-3.278 10.376-10.308m-96.613 14.518h-2.545c-2.841 0-4.459-.212-5.279-.378v-12.028c1.358-.095 3.97-.234 7.486-.195 4.536.046 7.35 2.456 7.35 6.279 0 3.055-1.842 6.322-7.012 6.322m14.634-33.768c.155-.355.12-.766-.088-1.097-.216-.33-.579-.525-.972-.525h-5.398c-.454 0-.874.271-1.053.688l-6.913 15.553c-3.439.024-6.423.207-8.034.32v-15.405c0-.641-.514-1.156-1.153-1.156h-4.827c-.642 0-1.159.515-1.159 1.156v39.013c0 .59.442 1.084 1.03 1.149 6.193.7 11.146.772 12.984.772.634 0 .972-.004.972-.004 11.879 0 14.377-7.016 14.377-12.894 0-4.909-2.346-8.457-7.167-10.848zm135.497 28.378c-.213.284-.551.447-.913.447h-4.512c-.524 0-.977-.351-1.118-.856l-6.051-22.816h-.463l-6.057 22.816c-.135.505-.593.856-1.119.856h-4.505c-.361 0-.698-.163-.92-.447-.216-.285-.292-.651-.204-.995l6.665-25.586c.331-1.27 1.504-3.419 3.827-3.419h1.292c-.111-.427-.232-.885-.361-1.278l-.059-.194c-.361-1.179-.904-2.964-4.195-2.964l-5.766.355c-.326.025-.645-.092-.873-.325-.238-.235-.369-.553-.352-.88l.141-3.02c.023-.509.381-.941.881-1.066 1.7-.42 4.943-.91 7.611-1.013.127-.008.243-.008.366-.008 4.349 0 7.299 2.815 8.785 8.354 1.73 6.486 3.89 14.832 5.466 20.926.715 2.744 1.329 5.109 1.772 6.792l.868 3.32c.092.35.011.716-.206 1.001m-110.934-14.624c0 6.811-1.851 9.458-6.591 9.458-4.913 0-6.654-2.473-6.654-9.458 0-6.332 1.058-9.758 6.654-9.758 5.509 0 6.591 3.577 6.591 9.758m7.075 0c0-11.092-4.216-16.042-13.666-16.042-9.496 0-13.732 4.95-13.732 16.042 0 10.93 4.236 15.804 13.732 15.804 9.322 0 13.666-5.017 13.666-15.804m21.956-10.432.199-3.826c.028-.572-.373-1.085-.938-1.192-1.618-.299-3.843-.662-5.236-.662-7.015 0-9.152 2.685-9.152 11.473v13.427h-2.689c-.641 0-1.159.52-1.159 1.16v3.972c0 .641.518 1.151 1.159 1.151h2.689v4.723c0 .537.361 1.001.877 1.126l4.648 1.132c.344.082.706.006.986-.212.278-.223.447-.554.447-.909v-5.86h7.078c.644 0 1.155-.51 1.155-1.151v-3.972c0-.64-.511-1.16-1.155-1.16h-7.078v-12.448c0-4.308.152-5.8 3.172-5.8 1.114 0 2.855.08 3.792.125.623.014 1.178-.455 1.205-1.097" fill="hsl(214, 6%, 99%)" transform="translate(138.4446 68.6444)"/><path d="m0 0 .186-.318.684-1.182 1.42.746c.132.066.208.231.233.436.027.641-.436 1.509-1.108 1.105-.524-.275-.843-.464-1.415-.787m-1.481-.318-.375.673c.984.624 2.042 1.166 3.063 1.712 1.2.662 2.895-.944 2.776-2.385-.023-.254-.093-.484-.245-.717l2.456-1.787c-.462-.218-.812-.403-1.365-.642l-2.15 1.572-1.187-.635 1.264-2.09c-.489-.312-.787-.506-1.358-.838zm32.469-67.36 2.237-6.387c.435.151.902.283 1.343.477l-2.171 6.358c-.594-.203-.869-.284-1.409-.448m-8.944-6.028-.524 1.292-.53 1.398-.46-1.398-.454-1.377zm.884 1.292 1.464-3.549c-.478-.02-.924-.069-1.353-.118l-.451 1.146-2.925-.081-.335-1.198c-.468.04-.905.054-1.368.054l1.261 3.746.899 2.843.043.09 1.492.066.076-.179zm7.345 74.656 1.512-.488c.414-.119.96.529.96 1.094 0 .269-.094.507-.453.586-.56.217-.942.313-1.552.467l-.312-1.053zm-.927-3.531c-.542.158-.943.224-1.539.394l1.098 3.743.803 2.668c1.157-.288 2.257-.662 3.357-1.021.623-.192.957-.897 1.021-1.647.041-1.019-.465-2.128-1.495-2.359l.4-3.016c-.483.2-.84.35-1.375.559l-.35 2.637-1.291.396zm-20.554-67.915c-.041.189-.118.342-.35.448l-1.694.624-.382-1.072-.137-.39-.01-.025 1.544-.578c.423-.188.832.189.979.603.05.113.093.254.05.39m1.269 0v-.367c-.104-.902-.715-1.817-1.706-1.932l.23-3.148c-.461.106-.98.258-1.47.467l-.053 2.961-1.33.569-1.079-2.614c-.436.145-.871.284-1.298.493l1.367 3.181.163.39 1.112 2.624 3.029-1.168c.674-.242.984-.841 1.035-1.456m19.325.956c-1.966-.431-3.48-.79-5.432-1.092l.181-1.133c.722.115 1.381.2 2.144.296l.984-5.456 1.447.273-1.174 5.441c.744.185 1.431.373 2.172.545zm7.389 63.839 1.461 2.814 3.944 1.833c-.415.297-.863.505-1.28.78l-2.716-1.238-.502 2.949c-.566.269-.907.388-1.497.626l.789-4.289-1.463-2.78zm14.789-1.722c-.622.762-1.654.649-1.951.118l-4.59-4.612c-.673-.7-.607-1.724.089-2.222 6.929-7.67 9.824-17.218 7.552-29.04-.051-.774.437-1.398 1.042-1.572l6.347-1.841c.845-.239 1.386.275 1.567.998 3.265 14.555-1.207 28.864-10.056 38.171m7.342-42.56-6.352 2.169c-.333.123-1.199.123-1.653-.994-5.131-12.302-17.072-20.723-30.9-20.723-13.846 0-26.009 8.614-30.919 20.915-.365.925-1.257.925-1.595.802l-6.317-2.169c-.686-.247-1.098-.855-.738-1.733 6.205-15.836 21.636-27.015 39.569-27.015 17.926 0 33.427 11.256 39.654 27.082.322.828-.068 1.419-.749 1.666m-78.772 3.391 6.337 1.841c.593.174 1.082.798 1.035 1.572-2.275 11.802.615 21.37 7.534 29.04.7.498.774 1.522.105 2.222l-4.606 4.631c-.448.512-1.261.512-1.96-.2-8.829-9.292-13.286-23.553-10.016-38.133.181-.698.733-1.212 1.571-.973m63.569 29.505c.018.283-.156.64-.551 1.029-5.073 5.366-10.283 8.368-17.429 10.067-.401.104-.866.198-1.176-.076-.32-.256-.412-.75-.347-1.491l1.177-16.533c.038-.625.321-1.121.738-1.374.458-.26 1.007-.211 1.576.063l14.889 7.185c.477.232 1.021.484 1.123.994 0 .031.018.072 0 .136m3.01-29.549c.442-.287.956-.634 1.421-.473.316.096.588.443.764 1.067 2.084 7.066 2.084 13.103 0 20.086-.129.438-.333.891-.699 1.055-.372.133-.838-.021-1.507-.474l-13.655-9.284c-.529-.355-.798-.84-.798-1.34 0-.499.269-.983.798-1.333zm-22.206-19.214c.251-.199.665-.257 1.3-.098 7.103 1.705 12.313 4.715 17.39 10.043.302.351.635.712.536 1.112-.093.384-.42.731-1.112 1.058l-14.893 7.227c-.565.266-1.114.266-1.568.028-.437-.275-.704-.744-.745-1.397l-1.204-16.485c-.011-.541-.076-1.156.296-1.488m-4.506 19.095c5.879 0 10.66 4.772 10.66 10.652 0 5.879-4.781 10.658-10.66 10.68-5.878 0-10.655-4.801-10.655-10.68 0-5.88 4.777-10.652 10.655-10.652m-23.423-8.314c0-.282.192-.634.551-1.008 5.121-5.386 10.306-8.383 17.427-10.055.456-.137.902-.205 1.218.042.322.24.414.734.36 1.514 0 .024-1.211 16.53-1.211 16.53-.052.626-.288 1.103-.726 1.354-.445.261-.997.261-1.591-.009l-14.854-7.231c-.517-.241-1.08-.514-1.157-1 0-.031-.017-.095-.017-.137m-.215 37.719c.062-.498.628-.752 1.123-.984l14.869-7.224c.592-.283 1.141-.283 1.589-.049.419.274.691.75.729 1.383l1.201 16.494c.065.798-.047 1.264-.335 1.509-.313.271-.778.194-1.226.112-7.127-1.714-12.321-4.725-17.439-10.064-.414-.468-.606-.86-.511-1.177m-2.986-8.134c-.486.314-1.004.673-1.427.485-.345-.104-.596-.466-.777-1.053-2.067-7.091-2.067-13.105 0-20.106.14-.455.297-.909.712-1.024.339-.141.839 0 1.492.45l13.644 9.296c.507.341.815.824.815 1.311 0 .528-.308.992-.815 1.349zm-.299 20.648 4.408-4.91c.616-.662 1.293-.581 2.184.116 5.57 4.368 12.716 6.953 20.331 6.953 7.621 0 14.772-2.575 20.395-6.953.88-.65 1.538-.778 2.184-.116l4.41 4.91c.499.542.499 1.291-.458 2.091-7.393 5.756-16.517 9.308-26.55 9.308-9.972 0-19.228-3.552-26.489-9.334-.95-.774-.908-1.523-.415-2.065m80.622-31.307c0-.625-.028-1.254-.098-1.755l-.018-.135-.144-.075c-2.282-1.358-5.23-2.131-8.187-2.212-.07-.375-.391-3.045-.446-3.421 2.757-.795 5.429-2.301 7.293-4.227l.076-.12v-.122c-.146-1.051-.519-2.461-.931-3.377l-.048-.143-.134-.022c-2.585-.745-5.63-.716-8.448-.019-.134-.35-1.176-2.832-1.282-3.192 2.47-1.561 4.653-3.706 5.881-5.996l.065-.128-.04-.134c-.386-.911-1.107-2.23-1.753-3.022l-.069-.119h-.164c-2.638-.031-5.585.752-8.157 2.184-.234-.307-1.951-2.576-2.184-2.882 2.026-2.087 3.563-4.733 4.186-7.343l.04-.136-.075-.095c-.588-.799-1.671-1.857-2.456-2.491l-.092-.081-.195.038c-2.538.677-5.221 2.214-7.306 4.229-.31-.233-2.438-1.896-2.755-2.133 1.363-2.496 2.191-5.368 2.191-7.963v-.361l-.158-.09c-.785-.632-2.091-1.388-3.022-1.769l-.093-.039-.154.05c-2.286 1.331-4.475 3.501-5.972 5.989-.361-.16-2.952-1.268-3.306-1.423.354-1.386.564-2.836.604-4.269 0-1.447-.25-2.893-.604-4.2l-.019-.13-.139-.076c-.866-.361-2.329-.723-3.348-.901l-.156-.022-.088.11c-1.968 1.872-3.475 4.534-4.267 7.316-.35-.026-3.035-.39-3.413-.469-.047-2.917-.847-5.876-2.236-8.168l-.075-.12-.158-.02c-.932-.142-2.425-.142-3.442 0l-.125.02-.089.12c-1.344 2.292-2.149 5.251-2.213 8.168-.401.039-3.229.443-3.622.469-.773-2.764-2.294-5.412-4.209-7.307l-.103-.097-.158.024c-1.05.154-2.429.558-3.353.941l-.112.055-.046.118c-.391 1.303-.592 2.764-.592 4.211 0 1.419.201 2.841.562 4.227-.361.155-2.807 1.146-3.16 1.305-1.514-2.53-3.698-4.728-6.004-6.01l-.121-.069-.148.039c-.955.427-2.212 1.149-3.026 1.759l-.1.1v.274c0 2.627.8 5.52 2.171 8.05-.303.235-2.585 1.969-2.898 2.204-2.091-2.015-4.752-3.534-7.324-4.192l-.133-.041-.14.091c-.787.635-1.799 1.657-2.435 2.46l-.086.139.038.135c.684 2.594 2.224 5.241 4.226 7.299-.228.31-1.956 2.549-2.2 2.884-2.544-1.426-5.519-2.251-8.157-2.183h-.141l-.091.091c-.617.816-1.355 2.12-1.752 3.045l-.06.138.06.123c1.328 2.326 3.499 4.472 5.978 5.959-.161.381-1.218 2.88-1.396 3.233-2.818-.702-5.881-.723-8.459 0l-.125.039-.076.116c-.347.869-.73 2.332-.888 3.362l-.028.16.093.122c1.875 1.911 4.51 3.424 7.331 4.259-.032.394-.446 3.236-.488 3.629-2.942.039-5.902.799-8.204 2.166l-.115.076-.011.16c-.065.477-.082 1.101-.082 1.734 0 .617.017 1.223.082 1.739l.011.158.115.064c2.302 1.357 5.262 2.142 8.204 2.187.062.388.411 3.15.456 3.523-2.789.799-5.45 2.326-7.34 4.231l-.079.093.027.147c.121 1.063.523 2.482.916 3.363l.045.128.138.04c2.545.75 5.624.729 8.454.035.157.344 1.189 2.835 1.345 3.21-2.498 1.511-4.692 3.661-5.996 5.983l-.065.148.065.139c.409.931 1.147 2.193 1.726 2.985l.095.119h.159c2.671.04 5.616-.777 8.157-2.185.238.285 1.97 2.629 2.207 2.941-2.017 2.1-3.543 4.733-4.202 7.342l-.028.112.055.115c.646.809 1.715 1.86 2.498 2.476l.125.078.118-.023c2.625-.671 5.271-2.233 7.332-4.237.3.238 2.364 1.829 2.67 2.061-1.42 2.484-2.213 5.38-2.213 7.953v.388l.131.09c.772.605 2.082 1.356 3.016 1.736l.098.062.157-.068c2.298-1.3 4.46-3.476 5.973-5.967.362.137 3.045 1.302 3.412 1.449-.35 1.388-.569 2.826-.547 4.252 0 1.482.18 2.893.57 4.194l.019.161.14.036c.865.363 2.309.752 3.324.907l.163.021.117-.102c1.914-1.862 3.44-4.527 4.246-7.339.391.041 3.212.396 3.589.464.061 2.895.853 5.852 2.236 8.149l.059.12.145.04c1.01.119 2.498.119 3.475 0l.13-.04.081-.12c1.391-2.297 2.196-5.254 2.196-8.122.423-.095 3.178-.45 3.571-.491.823 2.812 2.337 5.457 4.264 7.326l.087.094.128-.039c1.05-.116 2.471-.505 3.383-.904l.112-.045.045-.158c.395-1.289.584-2.693.584-4.152-.025-1.439-.234-2.89-.584-4.282.35-.142 3.029-1.262 3.402-1.419 1.484 2.491 3.621 4.65 5.944 5.967l.134.068.139-.062c.921-.391 2.209-1.131 3.001-1.754l.117-.072v-.362c0-2.639-.818-5.522-2.197-7.979.296-.232 2.509-1.962 2.841-2.218 2.084 2.025 4.733 3.574 7.344 4.216l.116.063.114-.121c.786-.584 1.846-1.686 2.446-2.476l.111-.117-.046-.133c-.665-2.61-2.237-5.259-4.24-7.331.234-.319 1.899-2.513 2.155-2.829 2.596 1.396 5.532 2.196 8.192 2.147h.123l.086-.117c.646-.826 1.387-2.106 1.748-2.986l.086-.169-.086-.128c-1.322-2.303-3.494-4.437-5.987-5.958.152-.378 1.166-2.879 1.359-3.229 2.794.704 5.867.719 8.412 0l.151-.03.059-.147c.355-.884.769-2.321.904-3.378l.021-.129-.104-.104c-1.869-1.937-4.53-3.452-7.328-4.243.055-.385.404-3.115.47-3.503 2.945-.064 5.881-.852 8.163-2.203l.144-.086.018-.139c.07-.497.098-1.101.098-1.745m-30.06-25.32 2.795-3.013-4.691 1.384c-.391-.297-.653-.4-.998-.701l4.082-5.489c.349.272.709.601 1.035.88l-2.477 3.302 4.738-1.428c.326.283.791.602 1.11 1.003l-4.725 4.997c-.253-.273-.543-.632-.869-.935m-3.244-8.027c0 .404-.103.765-.296 1.113-.56 1.044-1.888 1.38-2.922.786-.73-.391-1.102-1.134-1.102-1.899.023-.35.109-.742.314-1.072.058-.104.128-.211.232-.324.651-.776 1.797-.957 2.677-.445.241.12.435.277.59.445.325.39.507.915.507 1.396m.761 1.68c.287-.503.427-1.086.45-1.68 0-.465-.099-.941-.29-1.373-.315-.626-.78-1.186-1.428-1.56-1.577-.922-3.618-.372-4.575 1.251-.034.092-.077.195-.14.309-.192.432-.286.908-.326 1.373.04 1.195.623 2.297 1.693 2.918 1.603.908 3.673.365 4.616-1.238m7.061 8.98.796-1.259.728-1.269.983 1.269.257.315zm-.765 1.539 6.718-2.207c-.156-.199-.282-.391-.424-.591-.116-.151-.257-.304-.349-.501l-1.177.424-1.834-2.291.67-1.05c-.274-.312-.582-.65-.931-.995l-2.661 4.413-.984 1.626zm7.442.994-4.935 2.718-.633-1.137 5.923-3.306 2.281 4.09-1.016.545zm-39.021-14.265-.492-4.107-1.973 4.504c-.462.091-.751.21-1.216.284l-1.549-6.643c.478-.128.938-.18 1.432-.265l.829 4.081 2-4.547c.454-.069.969-.211 1.496-.197l.742 6.862c-.389.021-.851-.042-1.269.028m-.229 74.511.594-5.503 1.445.151-.566 5.463 2.187.135-.084 1.226c-2.441-.14-3.447-.239-5.863-.6l.162-1.164zm6.695-2.999c.734-.035 1.415-.117 2.103-.215l-.362 1.407-.454 1.449-.681-1.449zm-1.117-2.289c-.564.005-.825.005-1.379.005l1.676 3.476 1.519 3.159 1.508-.157.792-3.002 1.095-4.034c-.507.094-.901.17-1.38.199l-.39 1.265c-.995.154-1.895.201-2.818.242zm-13.995 1.662c.091-1.196 1.152-2.069 2.303-1.97 1.137.116 1.986 1.024 1.986 2.167.04.057 0 .122 0 .198-.099 1.203-1.134 2.046-2.334 1.934-1.14-.085-1.997-.988-1.955-2.132zm-1.231-.119v.316c-.035 1.74 1.299 3.173 3.05 3.312 1.852.18 3.497-1.18 3.654-3.043v-.269c0-1.736-1.313-3.222-3.094-3.385-1.799-.16-3.452 1.196-3.61 3.069m14.123-42.741c3.507 0 6.393 2.882 6.393 6.394 0 2.917-2.03 5.454-4.823 6.151-.035.287-.112 1.621-.112 1.621h-3.224s-.075-1.449-.101-1.737c-2.677-.812-4.482-3.253-4.482-6.035 0-3.512 2.883-6.394 6.349-6.394m-.119-3.179c-5.288 0-9.607 4.337-9.607 9.613 0 5.313 4.319 9.628 9.607 9.628 5.321 0 9.6-4.315 9.6-9.628 0-5.299-4.301-9.613-9.6-9.613m-18.924-20.933c.915-.498 1.811-1.018 2.813-1.492l.6.994c-1.387.717-2.688 1.536-3.855 2.344l-3.826-5.614c1.451-.961 2.777-1.764 4.268-2.624l.617.992-3.086 1.817 1.042 1.465 2.044-1.229.596.956c-.657.359-1.341.777-2.058 1.215zm-7.65 8.328-3.145-2.716 1.603 4.657c-.284.399-.415.677-.712 1.044l-5.636-3.824c.252-.379.561-.729.828-1.119l3.389 2.348-1.59-4.693c.275-.311.553-.785.942-1.102l5.215 4.473c-.29.309-.638.584-.894.932m-3.725 5.415-5.805-3.391c.208-.406.431-.883.685-1.275l5.818 3.399c-.284.513-.444.786-.698 1.267m7.172-10.562-3.579-4.245-1.114.967 3.699 4.122c-.586.543-1.034 1.031-1.601 1.537l.824.827c1.408-1.333 2.649-2.364 4.204-3.617l-.714-.911c-.566.445-1.149.87-1.719 1.32" fill="hsl(214, 6%, 99%)" transform="translate(216.2026 90.2168)"/></g></svg>
