<svg fill="#c5205a" viewBox="0 0 720 240" xmlns="http://www.w3.org/2000/svg" xmlns:xlink="http://www.w3.org/1999/xlink"><path d="m555.737 178.936-7.656 9.063-2.378-2.067 7.917-8.788c-1.258-1.163-2.21-2.204-3.422-3.276l1.765-1.761c3.007 2.848 5.661 5.037 8.99 7.717l-1.519 1.944c-1.227-.965-2.47-1.868-3.697-2.832zm-15.327-22.536-12.411 7.226c.445.872.92 1.883 1.473 2.725l12.442-7.257c-.614-1.087-.967-1.669-1.504-2.694zm7.963 11.558-6.72 5.803 3.421-9.936c-.613-.858-.89-1.439-1.519-2.22l-12.043 8.16c.537.811 1.197 1.546 1.765 2.388l7.241-5.006-3.406 10.013c.583.658 1.181 1.668 2.01 2.342l11.153-9.538c-.614-.674-1.35-1.271-1.902-2.006zm16.354 17.76c1.964 1.056 3.866 2.174 6.014 3.184l1.289-2.128c-2.961-1.531-5.754-3.276-8.239-5.006l-8.177 11.987c3.099 2.052 5.937 3.767 9.128 5.604l1.32-2.113-6.597-3.873 2.224-3.124 4.373 2.618 1.273-2.036c-1.396-.765-2.869-1.653-4.403-2.587zm40.456-44.659c-11.307 0-20.543-9.262-20.543-20.515 0-11.329 9.236-20.5457 20.543-20.5457 11.383 0 20.527 9.2007 20.527 20.5457 0 11.314-9.19 20.515-20.527 20.515zm.261-6.782c7.502 0 13.669-6.155 13.669-13.641 0-6.231-4.342-11.636-10.309-13.121-.077-.612-.246-3.46-.246-3.46h-6.888s-.154 3.093-.215 3.705c-5.723 1.73-9.589 6.936-9.589 12.876 0 7.486 6.168 13.641 13.578 13.641zm-30.193-91.2005v-.6736c-.076-3.705 2.777-6.767 6.521-7.0732 3.958-.3827 7.471 2.5261 7.808 6.4914v.5818c0 3.7049-2.807 6.874-6.612 7.2262-3.851.3368-7.379-2.5568-7.717-6.5526zm2.624-.245c.199 2.5568 2.454 4.4092 4.924 4.2102 2.424-.2449 4.25-2.1893 4.25-4.6235.092-.1225 0-.2603 0-.4134-.215-2.572-2.424-4.3633-4.986-4.1336-2.439.1837-4.265 2.1127-4.173 4.547v.4133zm29.931 3.5366c-1.212-.0153-1.764-.0153-2.945-.0153l3.59-7.41 3.252-6.7363 3.222.3368 1.687 6.3995 2.348 8.6041c-1.09-.199-1.933-.3674-2.946-.4286l-.828-2.6946c-2.133-.3368-4.051-.4286-6.03-.5205zm2.378-4.8838c1.565.0765 3.023.2449 4.495.4593l-.767-3.0008-.966-3.0925-1.458 3.0925zm-14.313-6.3995 1.273 11.7426 3.084-.3215-1.212-11.6508 4.679-.2909-.184-2.6179c-5.216.3062-7.364.5052-12.534 1.286l.352 2.4802zm.49 158.9922-1.043 8.757-4.219-9.614c-.982-.199-1.611-.444-2.608-.613l-3.314 14.177c1.028.276 2.01.383 3.069.567l1.779-8.712 4.281 9.707c.966.153 2.071.444 3.206.428l1.58-14.636c-.844-.046-1.825.077-2.731-.061zm83.428-30.436-10.555-5.802-1.35 2.419 12.657 7.057 4.879-8.726-2.179-1.164zm-15.909 2.113 14.36 4.715c-.338.429-.598.827-.905 1.256-.246.321-.552.643-.752 1.071l-2.516-.903-3.927 4.884 1.426 2.235c-.583.658-1.242 1.378-1.994 2.128l-5.692-9.415-2.102-3.476zm1.642 3.291 1.703 2.68 1.564 2.709 2.102-2.709.553-.674zm-15.097 19.153c.614 1.072.906 2.312.967 3.582 0 .996-.215 2.006-.629 2.925-.675 1.332-1.672 2.526-3.053 3.337-3.375 1.96-7.732.796-9.788-2.664-.077-.199-.169-.413-.291-.658-.415-.919-.614-1.944-.691-2.924.092-2.557 1.335-4.899 3.621-6.231 3.421-1.945 7.839-.781 9.864 2.633zm-1.626 3.582c0-.857-.215-1.638-.629-2.373-1.196-2.219-4.035-2.939-6.244-1.668-1.565.842-2.362 2.419-2.362 4.057.046.75.23 1.577.675 2.281.122.214.276.444.491.689 1.38 1.653 3.835 2.036 5.722.949.522-.26.936-.597 1.258-.949.69-.842 1.089-1.96 1.089-2.986zm6.935-17.116 5.968 6.43-10.034-2.955c-.828.628-1.396.858-2.132 1.501l8.729 11.712c.737-.582 1.519-1.286 2.209-1.883l-5.293-7.043 10.126 3.047c.69-.597 1.688-1.286 2.378-2.144l-10.11-10.655c-.522.566-1.151 1.332-1.841 1.99zm64.266-54.028c0 1.332-.061 2.679-.215 3.751l-.03.291-.307.153c-4.879 2.893-11.184 4.547-17.505 4.715-.154.796-.844 6.492-.951 7.303 5.891 1.699 11.613 4.914 15.587 9.017l.169.261v.26c-.307 2.235-1.105 5.251-1.995 7.211l-.107.306-.292.046c-5.523 1.592-12.043 1.531-18.057.046-.291.75-2.516 6.047-2.746 6.813 5.277 3.322 9.941 7.9 12.58 12.799l.138.275-.092.291c-.828 1.945-2.362 4.762-3.743 6.446l-.154.26h-.352c-5.646.061-11.936-1.608-17.444-4.654-.506.658-4.173 5.496-4.679 6.154 4.326 4.455 7.625 10.105 8.944 15.662l.092.291-.169.199c-1.258 1.699-3.574 3.965-5.247 5.313l-.199.168-.414-.077c-5.431-1.439-11.169-4.715-15.618-9.017-.66.49-5.216 4.042-5.891 4.547 2.915 5.328 4.679 11.452 4.679 16.994v.765l-.338.184c-1.672 1.347-4.464 2.97-6.458 3.782l-.2.076-.322-.107c-4.879-2.832-9.573-7.471-12.764-12.784-.767.337-6.306 2.71-7.073 3.032.752 2.954 1.212 6.047 1.289 9.109 0 3.093-.537 6.17-1.289 8.956l-.046.276-.291.168c-1.857.766-4.986 1.546-7.165 1.929l-.337.046-.184-.23c-4.204-3.995-7.426-9.675-9.129-15.616-.752.062-6.489.827-7.302.996-.092 6.231-1.811 12.538-4.787 17.422l-.153.26-.338.046c-1.994.307-5.185.307-7.364 0l-.261-.046-.199-.26c-2.869-4.899-4.587-11.207-4.725-17.422-.86-.077-6.904-.95-7.748-.996-1.657 5.895-4.909 11.544-9.006 15.586l-.214.214-.338-.046c-2.24-.337-5.185-1.194-7.164-2.005l-.231-.123-.107-.245c-.844-2.786-1.273-5.894-1.273-8.987 0-3.031.429-6.062 1.196-9.017-.767-.337-5.998-2.45-6.75-2.786-3.237 5.404-7.901 10.089-12.841 12.829l-.261.153-.307-.076c-2.04-.904-4.725-2.45-6.474-3.751l-.215-.215v-.581c0-5.604 1.703-11.774 4.634-17.178-.645-.505-5.523-4.195-6.198-4.7-4.465 4.302-10.157 7.532-15.664 8.941l-.276.092-.307-.199c-1.688-1.348-3.851-3.537-5.201-5.252l-.184-.29.077-.291c1.457-5.542 4.755-11.192 9.036-15.57-.491-.659-4.189-5.435-4.71-6.155-5.446 3.047-11.798 4.807-17.444 4.654h-.306l-.2-.199c-1.319-1.745-2.899-4.531-3.743-6.491l-.123-.291.123-.26c2.838-4.961 7.486-9.538 12.779-12.723-.337-.811-2.608-6.139-2.991-6.904-6.03 1.5-12.58 1.546-18.088 0l-.261-.077-.169-.245c-.736-1.852-1.565-4.976-1.902-7.165l-.061-.352.199-.26c4.004-4.073 9.65-7.303 15.679-9.094-.061-.842-.951-6.905-1.043-7.747-6.29-.077-12.626-1.699-17.536-4.624l-.245-.168-.015-.337c-.138-1.026-.184-2.358-.184-3.705 0-1.316.046-2.618.184-3.705l.015-.337.245-.137c4.925-2.894 11.246-4.578 17.536-4.67.138-.827.874-6.721.967-7.517-5.968-1.699-11.66-4.9603-15.695-9.0327l-.169-.199.062-.3215c.26-2.2659 1.12-5.2972 1.963-7.1803l.092-.2756.292-.0766c5.446-1.6075 12.028-1.5616 18.072-.0765.338-.7349 2.547-6.0474 2.869-6.8435-5.339-3.2304-10.033-7.808-12.825-12.7683l-.138-.3216.138-.2908c.874-1.9903 2.454-4.6848 3.697-6.3689l.199-.2603h.338c5.707-.0765 12.012 1.6535 17.443 4.6695.507-.6124 4.219-5.6034 4.726-6.277-4.311-4.4858-7.579-10.1045-8.975-15.6619l-.062-.245.123-.2449c1.381-1.73 3.667-3.9653 5.339-5.2819l.261-.1684.245.0459c5.615 1.4391 11.276 4.7614 15.68 9.0481.644-.5052 5.047-3.904 5.707-4.3939-3.038-5.2972-4.726-11.4824-4.726-16.9633v-.8267l.277-.199c1.656-1.286 4.449-2.8936 6.443-3.705l.215-.1378.337.1378c4.91 2.7711 9.543 7.41 12.765 12.7378.782-.2909 6.504-2.7711 7.302-3.0926-.752-2.9548-1.212-6.0321-1.166-9.0787 0-3.1538.384-6.1699 1.228-8.9409l.046-.3522.291-.0765c1.856-.7808 4.94-1.60754 7.103-1.92905l.353-.04593.246.21434c4.096 3.96524 7.348 9.66044 9.082 15.66194.844-.0919 6.873-.8421 7.671-.9952.138-6.1698 1.825-12.4774 4.786-17.39188l.123-.26027.307-.07655c2.163-.26027 5.339-.26027 7.425 0l.276.07655.169.26027c2.976 4.89908 4.695 11.20678 4.695 17.33068.905.199 6.796.9645 7.64 1.0411 1.764-6.0015 5.001-11.6355 9.113-15.63133l.184-.19903.276.07655c2.24.24496 5.278 1.07171 7.226 1.92901l.246.0919.092.3368c.843 2.7558 1.242 5.7412 1.242 8.8644-.046 3.0772-.506 6.1698-1.242 9.1399.751.3062 6.474 2.6945 7.271 3.0313 3.176-5.3124 7.748-9.9207 12.719-12.7377l.291-.1378.292.1378c1.963.8267 4.725 2.419 6.413 3.7356l.245.1531v.7655c0 5.634-1.749 11.7885-4.695 17.0245.629.4899 5.37 4.1795 6.076 4.7307 4.449-4.3174 10.125-7.6243 15.694-8.9869l.246-.1377.245.2602c1.688 1.2401 3.943 3.5978 5.232 5.2819l.23.245-.092.2908c-1.427 5.5728-4.787 11.2221-9.067 15.6466.491.689 4.065 5.3585 4.602 6.0321 5.554-2.9854 11.829-4.6848 17.521-4.5776h.26l.184.2449c1.381 1.7607 2.961 4.5011 3.729 6.3689l.184.3674-.184.2756c-2.823 4.9145-7.472 9.4615-12.795 12.7071.322.8115 2.485 6.1393 2.899 6.8894 5.968-1.5003 12.55-1.5309 17.981 0l.322.0613.122.3062c.752 1.8831 1.642 4.9604 1.934 7.2109l.046.2756-.231.2296c-3.988 4.1337-9.68 7.3637-15.663 9.0477.122.827.859 6.645 1.012 7.472 6.29.137 12.58 1.821 17.444 4.7l.306.183.031.291c.292 1.072.353 2.358.353 3.736zm-172.379-66.7967 9.42 10.4719c1.319 1.4085 2.761 1.2401 4.664-.245 11.905-9.3237 27.185-14.8352 43.463-14.8352 16.292 0 31.588 5.4962 43.616 14.8352 1.887 1.3779 3.283 1.6535 4.664.245l9.435-10.4719c1.074-1.1636 1.074-2.7558-.982-4.4705-15.802-12.2784-35.316-19.8568-56.764-19.8568-21.325 0-41.116 7.5784-56.642 19.918-2.009 1.6535-1.917 3.2457-.874 4.4093zm.644 44.0462c-1.043-.6736-2.148-1.4391-3.053-1.041-.736.2296-1.273.9951-1.657 2.2505-4.418 15.126-4.418 27.956 0 42.898.292.98.629 1.944 1.519 2.189.721.307 1.795 0 3.191-.964l29.18-19.826c1.089-.735 1.749-1.761 1.749-2.802 0-1.133-.66-2.113-1.749-2.878zm6.382-17.346c.139 1.0564 1.351 1.6076 2.409 2.0975l31.788 15.4169c1.258.5971 2.439.5971 3.406.1072.89-.5818 1.473-1.5922 1.549-2.9548l2.562-35.1972c.139-1.6994-.107-2.6945-.705-3.215-.675-.5818-1.673-.4134-2.624-.245-15.234 3.659-26.341 10.0891-37.295 21.4796-.875.9952-1.289 1.8372-1.09 2.5108zm.461 80.4685c0 .597.414 1.347 1.181 2.158 10.954 11.498 22.031 17.882 37.265 21.449.982.291 1.933.444 2.608-.091.69-.506.89-1.562.767-3.231 0-.046-2.593-35.273-2.593-35.273-.107-1.332-.613-2.358-1.549-2.894-.951-.551-2.133-.551-3.406.015l-31.757 15.433c-1.105.52-2.317 1.102-2.47 2.128-.016.091-.046.229-.046.306zm50.075-17.729c12.58 0 22.798-10.181 22.798-22.735 0-12.539-10.218-22.735-22.798-22.781-12.565 0-22.782 10.242-22.782 22.781.015 12.554 10.217 22.735 22.782 22.735zm9.634 40.739c.537.429 1.427.552 2.777.215 15.189-3.644 26.327-10.059 37.189-21.434.644-.75 1.35-1.516 1.15-2.373-.199-.827-.89-1.562-2.378-2.266l-31.834-15.417c-1.212-.566-2.378-.566-3.344-.061-.936.597-1.504 1.592-1.596 2.985l-2.577 35.167c-.031 1.163-.169 2.48.613 3.184zm47.483-40.999c.951.612 2.04 1.347 3.038 1.01.675-.199 1.258-.949 1.626-2.281 4.449-15.08 4.449-27.956 0-42.852-.276-.9339-.706-1.8984-1.488-2.2506-.798-.2909-1.795.046-3.222 1.0105l-29.195 19.8111c-1.136.765-1.703 1.791-1.703 2.863 0 1.056.583 2.097 1.703 2.847zm-6.428-63.0459c.03-.5971-.338-1.3626-1.182-2.1893-10.846-11.4517-21.984-17.8512-37.264-21.4797-.86-.2296-1.857-.4286-2.516.1531-.691.5512-.875 1.6076-.737 3.1845l2.516 35.2737c.077 1.332.691 2.4037 1.58 2.9395.982.5512 2.148.4593 3.376-.1378l31.834-15.3251c1.027-.4899 2.178-1.0257 2.408-2.1127-.015-.0766.015-.1684-.015-.3062zm-135.927 62.9539 13.546-3.919c1.274-.368 2.317-1.7 2.209-3.353-4.863-25.185 1.32-45.5928 16.109-61.9589 1.504-1.0564 1.657-3.2457.23-4.7461l-9.849-9.8748c-.951-1.087-2.7-1.087-4.188.4287-18.871 19.8262-28.413 50.2471-21.417 81.3561.399 1.485 1.58 2.572 3.36 2.067zm168.42 7.241-13.577-4.623c-.706-.26-2.562-.26-3.528 2.128-10.97 26.256-36.498 44.215-66.062 44.215-29.609 0-55.613-18.372-66.107-44.628-.782-1.975-2.685-1.975-3.406-1.715l-13.501 4.623c-1.472.521-2.347 1.822-1.58 3.705 13.271 33.789 46.255 57.642 84.594 57.642 38.324 0 71.477-24.021 84.778-57.779.691-1.792-.153-3.047-1.611-3.568zm-15.694-90.8172c-1.335-1.6228-3.529-1.3779-4.173-.245l-9.819 9.8442c-1.442 1.5004-1.304 3.6744.2 4.7461 14.82 16.3661 21.003 36.7279 16.139 61.9589-.107 1.653.936 2.985 2.225 3.353l13.577 3.919c1.81.505 2.961-.582 3.345-2.128 6.995-31.048-2.562-61.5914-21.494-81.4482zm-31.619-3.6744 3.129-6.0014 8.438-3.904c-.889-.6277-1.841-1.0717-2.73-1.6688l-5.815 2.6333-1.074-6.2923c-1.212-.5665-1.948-.8267-3.206-1.332l1.687 9.1553-3.129 5.9249zm-15.802 136.2116c-4.204.918-7.441 1.684-11.614 2.327l.384 2.419c1.549-.245 2.961-.429 4.587-.628l2.102 11.651 3.099-.582-2.516-11.605c1.595-.398 3.053-.796 4.648-1.163zm-41.315 2.036v.781c-.215 1.929-1.534 3.873-3.652 4.118l.491 6.721c-.982-.23-2.101-.551-3.145-.995l-.107-6.323-2.838-1.21-2.302 5.573c-.935-.306-1.871-.612-2.776-1.056l2.914-6.782.353-.842 2.378-5.604 6.474 2.496c1.443.535 2.102 1.821 2.21 3.123zm-2.716 0c-.092-.398-.245-.72-.752-.949l-3.62-1.332-.813 2.281-.292.842-.03.046 3.298 1.24c.905.398 1.78-.398 2.102-1.286.107-.245.199-.551.107-.842zm43.954-144.9073c-1.151-.3368-2.01-.4746-3.283-.8421l2.347-7.9917 1.719-5.6952c2.47.6124 4.832 1.4085 7.179 2.174 1.335.4133 2.041 1.9137 2.179 3.5212.092 2.174-.997 4.5317-3.191 5.037l.859 6.4301c-1.028-.4287-1.795-.7502-2.946-1.1942l-.751-5.6187-2.762-.842zm1.979-7.5324 3.237 1.041c.89.2603 2.056-1.1329 2.056-2.3271 0-.5664-.199-1.087-.966-1.2554-1.197-.4593-2.01-.6583-3.314-.9951l-.66 2.2505zm-15.71 159.2987 3.13 7.578c-1.028.046-1.979.153-2.884.245l-.967-2.45-6.259.169-.721 2.557c-.997-.092-1.933-.123-2.93-.123l2.7-7.992 1.917-6.062.092-.199 3.191-.138.169.383zm-1.887 2.755-1.12-2.755-1.135-2.986-.982 2.986-.966 2.939zm19.131-12.86 4.787 13.626c.936-.322 1.933-.613 2.869-1.011l-4.633-13.564c-1.289.429-1.872.597-3.023.949zm-69.436-143.7281-.798-1.4392c2.102-1.3319 4.373-2.4801 6.551-3.6437 2.562-1.4085 6.183 2.0056 5.937 5.0829-.046.5358-.199 1.041-.521 1.5309l5.247 3.8122c-.982.4593-1.734.8573-2.915 1.3625l-4.603-3.3528-2.531 1.3626 2.7 4.4551c-1.043.6583-1.688 1.0717-2.9 1.7913zm3.176-.6737.399.6737 1.457 2.5261 3.038-1.5922c.276-.1378.445-.49.491-.9339.061-1.3626-.936-3.2151-2.363-2.3578-1.12.5818-1.795.9952-3.022 1.6841z"/><path d="m412.844 145.897.323 8.237c.046 1.255-.844 2.342-2.087 2.526-4.817.765-12.488 2.511-19.99 2.511-20.297 0-29.364-10.396-29.364-33.728h.015c0-.168-.015-.337-.015-.505 0-23.317 9.052-33.7276 29.364-33.7276 7.502 0 15.173 1.7454 19.99 2.5108 1.227.1838 2.133 1.2708 2.087 2.5262l-.323 8.2366c-.03.674-.337 1.317-.828 1.761-.506.444-1.197.658-1.872.597-5.385-.49-11.966-2.082-19.039-2.082-10.509 0-14.237 5.281-14.237 20.178 0 .566.016 1.118.016 1.669 0 .321 0 .658.015.964.015.475.031.934.061 1.393.016.429.031.858.077 1.271.015.23.031.444.046.658.905 10.763 4.909 14.728 14.022 14.728 7.088 0 13.654-1.607 19.039-2.082.675-.076 1.35.138 1.872.582.491.459.813 1.118.828 1.776zm-126.016-53.5996c-6.582.3981-13.041 4.1337-17.075 6.9966v-4.0418c0-1.3625-1.105-2.4649-2.486-2.4649h-9.941c-1.366 0-2.485 1.1024-2.485 2.4649v60.0448c0 1.363 1.104 2.465 2.485 2.465h9.941c1.366 0 2.486-1.102 2.486-2.465v-41.505c2.239-1.867 9.174-7.057 17.443-7.777 1.273-.107 2.255-1.179 2.255-2.45v-8.8027c0-.6736-.276-1.3166-.782-1.7912-.476-.4746-1.166-.7349-1.841-.6737zm34.718 37.3256c-5.845.551-8.622 3.215-8.622 8.344 0 3.153.875 8.481 6.658 8.481 6.873 0 16.217-2.587 16.309-2.618v-14.957zm29.241-16.397v43.082c0 .719-.322 1.393-.843 1.867-.553.475-1.274.674-1.964.582-5.048-.704-7.456-2.281-9.85-4.118-.107.046-11.276 4.547-21.263 4.547-12.028 0-18.932-7.578-18.932-20.806 0-12.922 6.321-18.647 21.801-19.796l16.17-1.301v-3.919c0-4.961-2.946-7.808-8.1-7.808-7.088 0-17.199.826-22.583 1.316-.675.077-1.351-.153-1.872-.597-.491-.444-.813-1.087-.844-1.76l-.322-8.237c-.046-1.2554.844-2.3424 2.086-2.5261 4.818-.7655 16.815-2.5108 24.317-2.5108 15.142 0 22.199 6.9812 22.199 21.9849zm-141.465 16.397c-5.845.551-8.622 3.215-8.622 8.344 0 3.153.874 8.481 6.658 8.481 6.873 0 16.216-2.587 16.308-2.618v-14.957zm29.226-16.397v43.082c0 .719-.307 1.393-.844 1.867-.552.475-1.273.674-1.964.582-5.047-.704-7.456-2.281-9.849-4.118-.092.046-11.276 4.547-21.264 4.547-12.028 0-18.916-7.578-18.916-20.806 0-12.922 6.305-18.647 21.8-19.796l16.171-1.301v-3.919c0-4.961-2.946-7.808-8.085-7.808-7.088 0-17.199.826-22.583 1.316-.675.077-1.351-.153-1.872-.597-.491-.444-.813-1.087-.829-1.76l-.322-8.237c-.046-1.2554.844-2.3424 2.087-2.5261 4.817-.7655 16.814-2.5108 24.301-2.5108 15.127 0 22.169 6.9812 22.169 21.9849zm-206.5606-30.9718h-5.431c-6.0753 0-9.5425.4593-11.2914.8114v25.6594c2.8995.199 8.4839.49 16.0013.413 9.696-.107 15.7099-5.236 15.7099-13.3959 0-6.5219-3.9275-13.4879-14.9888-13.4879zm31.2817 72.0478c.3375.766.2608 1.638-.1841 2.342-.4603.705-1.2274 1.118-2.0865 1.118h-11.5369c-.9666 0-1.8717-.582-2.2553-1.47l-14.774-33.191c-7.3487-.046-13.7308-.444-17.1827-.689v32.87c0 1.362-1.0892 2.465-2.47 2.465h-10.30959c-1.36541.015-2.47001-1.087-2.47001-2.45v-83.2391c0-1.2554.951184-2.3118 2.2092-2.4496 13.2245-1.485 23.8256-1.6381 27.7684-1.6381h2.0865c25.3905 0 30.7294 14.973 30.7294 27.5117 0 10.4721-5.0168 18.0351-15.3264 23.1481zm399.1599-7.088.429 8.16c.062 1.225-.798 2.312-2.009 2.541-3.468.643-8.224 1.409-11.2 1.409-14.989 0-19.561-5.726-19.561-24.481v-28.644h-5.753c-1.365 0-2.47-1.103-2.47-2.48v-8.4668c0-1.3625 1.105-2.4649 2.47-2.4649h5.753v-10.0738c0-1.1482.767-2.128 1.872-2.4036l9.942-2.419c.736-.1684 1.503-.0153 2.101.444.599.4746.951 1.1789.951 1.9444v12.4927h15.127c1.381 0 2.47 1.1023 2.47 2.4649v8.4661c0 1.363-1.089 2.48-2.47 2.48h-15.127v26.578c0 9.186.323 12.371 6.782 12.371 2.377 0 6.105-.169 8.115-.276 1.32-.015 2.516.98 2.578 2.358zm-346.63-22.261c0-14.529-3.958-20.178-14.099-20.178-10.5091 0-14.2218 5.282-14.2218 20.178 0 13.519 2.2706 20.822 14.2218 20.822 11.782 0 14.099-7.625 14.099-20.822zm15.127 0c0 23.669-9.006 34.218-29.226 34.218-20.2971 0-29.364-10.564-29.364-34.218 0-23.317 9.0669-33.7273 29.364-33.7273 19.944.0154 29.226 10.7173 29.226 33.7273zm46.945 22.261.43 8.16c.061 1.225-.798 2.312-2.01 2.541-3.452.643-8.223 1.409-11.199 1.409-14.989 0-19.561-5.726-19.561-24.481v-28.644h-5.753c-1.365 0-2.485-1.103-2.485-2.48v-8.4668c0-1.3625 1.104-2.4649 2.485-2.4649h5.753v-10.0738c0-1.1482.767-2.128 1.872-2.4036l9.941-2.419c.737-.1684 1.504-.0153 2.102.444.598.4746.967 1.1789.967 1.9444v12.4927h15.126c1.381 0 2.486 1.1023 2.486 2.4649v8.4661c0 1.363-1.089 2.48-2.486 2.48h-15.126v26.578c0 9.186.322 12.371 6.781 12.371 2.393 0 6.106-.169 8.115-.276 1.32-.015 2.501.98 2.562 2.358z"/><path d="m15.928 227.672c4.704 0 8.288-1.904 11.256-5.32l-2.576-2.8c-2.352 2.576-4.984 3.976-8.512 3.976-6.944 0-11.312-5.768-11.312-15.008 0-9.128 4.592-14.784 11.48-14.784 3.136 0 5.544 1.288 7.504 3.304l2.576-2.912c-2.184-2.408-5.656-4.536-10.136-4.536-9.352 0-16.2959999 7.224-16.2959999 19.04 0 11.984 6.8319999 19.04 16.0159999 19.04zm22.5282 0c1.176 0 2.016-.168 2.688-.504l-.616-3.472c-.448.112-.672.112-.952.112-.728 0-1.344-.504-1.344-1.96v-34.72h-4.648v34.384c0 3.92 1.4 6.16 4.872 6.16zm17.3534 0c3.752 0 6.44-1.96 8.96-4.928h.168l.392 4.256h3.808v-27.216h-4.648v19.264c-2.52 3.192-4.48 4.592-7.224 4.592-3.584 0-5.152-2.184-5.152-7.224v-16.632h-4.648v17.248c0 6.944 2.576 10.64 8.344 10.64zm34.549 0c6.216 0 11.8164-5.432 11.8164-14.728 0-8.4-3.8084-13.832-10.8084-13.832-3.024 0-6.048 1.624-8.568 3.752l.168-4.872v-10.864h-4.648v39.872h3.696l.448-2.8h.168c2.408 2.184 5.208 3.472 7.728 3.472zm-.784-3.92c-1.792 0-4.256-.728-6.608-2.8v-14.224c2.576-2.464 4.928-3.696 7.224-3.696 5.096 0 7.168 3.976 7.168 9.968 0 6.72-3.304 10.752-7.784 10.752zm41.5464 3.92c6.664 0 12.656-5.208 12.656-14.224 0-9.128-5.992-14.336-12.656-14.336s-12.6 5.208-12.6 14.336c0 9.016 5.936 14.224 12.6 14.224zm0-3.864c-4.648 0-7.784-4.144-7.784-10.36 0-6.272 3.136-10.472 7.784-10.472 4.704 0 7.84 4.2 7.84 10.472 0 6.216-3.136 10.36-7.84 10.36zm20.552 3.192h4.648v-23.464h5.712v-3.752h-5.712v-4.256c0-3.472 1.232-5.32 3.808-5.32.952 0 1.96.224 3.024.56l1.008-3.416c-1.12-.504-2.856-.896-4.536-.896-5.432 0-7.952 3.528-7.952 9.072v4.256l-3.696.28v3.472h3.696zm27.226 0h11.76c8.176 0 13.888-3.528 13.888-10.752 0-5.04-3.08-7.952-7.448-8.792v-.224c3.416-1.12 5.376-4.368 5.376-8.008 0-6.44-5.208-8.96-12.656-8.96h-10.92zm4.704-21.112v-11.872h5.6c5.712 0 8.624 1.568 8.624 5.824 0 3.752-2.576 6.048-8.792 6.048zm0 17.36v-13.776h6.384c6.384 0 9.912 2.072 9.912 6.608 0 4.928-3.64 7.168-9.912 7.168zm27.77 3.752h4.648v-27.216h-4.648zm2.352-32.816c1.792 0 3.08-1.176 3.08-3.024 0-1.792-1.288-3.024-3.08-3.024s-3.08 1.232-3.08 3.024c0 1.848 1.288 3.024 3.08 3.024zm11.484 32.816h4.648v-17.472c1.848-4.592 4.592-6.216 6.888-6.216 1.064 0 1.68.112 2.464.336l1.008-3.976c-.84-.392-1.68-.56-2.912-.56-3.024 0-5.824 2.184-7.728 5.6h-.168l-.392-4.928h-3.808zm19.469 0h4.648v-19.712c2.52-2.8 4.76-4.144 6.776-4.144 3.472 0 5.04 2.128 5.04 7.224v16.632h4.648v-19.712c2.52-2.8 4.704-4.144 6.832-4.144 3.416 0 5.04 2.128 5.04 7.224v16.632h4.648v-17.248c0-6.944-2.688-10.64-8.288-10.64-3.304 0-6.16 2.128-8.96 5.152-1.12-3.192-3.36-5.152-7.56-5.152-3.248 0-6.048 2.016-8.456 4.592h-.168l-.392-3.92h-3.808zm46.43 0h4.648v-27.216h-4.648zm2.352-32.816c1.792 0 3.08-1.176 3.08-3.024 0-1.792-1.288-3.024-3.08-3.024s-3.08 1.232-3.08 3.024c0 1.848 1.288 3.024 3.08 3.024zm11.484 32.816h4.648v-19.712c2.688-2.744 4.648-4.144 7.392-4.144 3.584 0 5.152 2.128 5.152 7.224v16.632h4.648v-17.248c0-6.944-2.576-10.64-8.344-10.64-3.752 0-6.552 2.016-9.128 4.592h-.168l-.392-3.92h-3.808zm39.809 12.544c8.456 0 13.776-4.368 13.776-9.464 0-4.48-3.192-6.496-9.52-6.496h-5.264c-3.64 0-4.76-1.232-4.76-2.912 0-1.512.728-2.408 1.736-3.248 1.232.616 2.688.952 4.032.952 5.544 0 9.968-3.64 9.968-9.464 0-2.296-.896-4.312-2.184-5.544h5.544v-3.584h-9.464c-1.008-.392-2.352-.672-3.864-.672-5.544 0-10.248 3.752-10.248 9.688 0 3.248 1.736 5.88 3.528 7.336v.224c-1.4.952-2.968 2.744-2.968 5.04 0 2.128 1.064 3.584 2.408 4.424v.224c-2.464 1.68-3.976 3.864-3.976 6.16 0 4.704 4.592 7.336 11.256 7.336zm0-24.304c-3.136 0-5.768-2.464-5.768-6.44s2.576-6.328 5.768-6.328 5.768 2.408 5.768 6.328c0 3.976-2.632 6.44-5.768 6.44zm.672 21.056c-4.928 0-7.896-1.792-7.896-4.704 0-1.568.84-3.192 2.8-4.592 1.176.336 2.464.448 3.528.448h4.648c3.584 0 5.488.84 5.488 3.36 0 2.8-3.416 5.488-8.568 5.488zm18.417-9.296h4.648v-19.712c2.688-2.744 4.648-4.144 7.392-4.144 3.584 0 5.152 2.128 5.152 7.224v16.632h4.648v-17.248c0-6.944-2.576-10.64-8.344-10.64-3.752 0-6.496 2.016-9.016 4.48l.168-5.6v-10.864h-4.648zm36.733.672c3.416 0 6.384-1.736 8.96-3.92h.168l.448 3.248h3.808v-16.744c0-6.72-2.856-11.144-9.464-11.144-4.368 0-8.176 1.848-10.696 3.528l1.792 3.136c2.128-1.4 4.984-2.8 8.12-2.8 4.424 0 5.544 3.304 5.6 6.72-11.648 1.288-16.688 4.2-16.688 10.248 0 4.928 3.416 7.728 7.952 7.728zm1.288-3.808c-2.632 0-4.704-1.176-4.704-4.2 0-3.528 2.968-5.6 12.152-6.664v7.392c-2.632 2.296-4.816 3.472-7.448 3.472zm20.659 3.136h4.648v-19.712c2.52-2.8 4.76-4.144 6.776-4.144 3.472 0 5.04 2.128 5.04 7.224v16.632h4.648v-19.712c2.52-2.8 4.704-4.144 6.832-4.144 3.416 0 5.04 2.128 5.04 7.224v16.632h4.648v-17.248c0-6.944-2.688-10.64-8.288-10.64-3.304 0-6.16 2.128-8.96 5.152-1.12-3.192-3.36-5.152-7.56-5.152-3.248 0-6.048 2.016-8.456 4.592h-.168l-.392-3.92h-3.808z"/></svg>
