<svg width="720" height="240" viewBox="0 0 720 240" fill="none" xmlns="http://www.w3.org/2000/svg">
<g clip-path="url(#clip0)">
<path d="M555.737 178.936L548.081 187.999L545.703 185.932L553.62 177.144C552.362 175.981 551.41 174.94 550.198 173.868L551.963 172.107C554.97 174.955 557.624 177.144 560.953 179.824L559.434 181.768C558.207 180.803 556.964 179.9 555.737 178.936ZM540.41 156.4L527.999 163.626C528.444 164.498 528.919 165.509 529.472 166.351L541.914 159.094C541.3 158.007 540.947 157.425 540.41 156.4ZM548.373 167.958L541.653 173.761L545.074 163.825C544.461 162.967 544.184 162.386 543.555 161.605L531.512 169.765C532.049 170.576 532.709 171.311 533.277 172.153L540.518 167.147L537.112 177.16C537.695 177.818 538.293 178.828 539.122 179.502L550.275 169.964C549.661 169.29 548.925 168.693 548.373 167.958ZM564.727 185.718C566.691 186.774 568.593 187.892 570.741 188.902L572.03 186.774C569.069 185.243 566.276 183.498 563.791 181.768L555.614 193.755C558.713 195.807 561.551 197.522 564.742 199.359L566.062 197.246L559.465 193.373L561.689 190.249L566.062 192.867L567.335 190.831C565.939 190.066 564.466 189.178 562.932 188.244L564.727 185.718ZM605.183 141.059C593.876 141.059 584.64 131.797 584.64 120.544C584.64 109.215 593.876 99.9983 605.183 99.9983C616.566 99.9983 625.71 109.199 625.71 120.544C625.71 131.858 616.52 141.059 605.183 141.059ZM605.444 134.277C612.946 134.277 619.113 128.122 619.113 120.636C619.113 114.405 614.771 109 608.804 107.515C608.727 106.903 608.558 104.055 608.558 104.055H601.67C601.67 104.055 601.516 107.148 601.455 107.76C595.732 109.49 591.866 114.696 591.866 120.636C591.866 128.122 598.034 134.277 605.444 134.277ZM575.251 43.0765V42.4029C575.175 38.6979 578.028 35.6359 581.772 35.3297C585.73 34.947 589.243 37.8558 589.58 41.8211V42.4029C589.58 46.1078 586.773 49.2769 582.968 49.6291C579.117 49.9659 575.589 47.0723 575.251 43.0765ZM577.875 42.8315C578.074 45.3883 580.329 47.2407 582.799 47.0417C585.223 46.7968 587.049 44.8524 587.049 42.4182C587.141 42.2957 587.049 42.1579 587.049 42.0048C586.834 39.4328 584.625 37.6415 582.063 37.8712C579.624 38.0549 577.798 39.9839 577.89 42.4182V42.8315H577.875ZM607.806 46.3681C606.594 46.3528 606.042 46.3528 604.861 46.3528L608.451 38.9428L611.703 32.2065L614.925 32.5433L616.612 38.9428L618.96 47.5469C617.87 47.3479 617.027 47.1795 616.014 47.1183L615.186 44.4237C613.053 44.0869 611.135 43.9951 609.156 43.9032L607.806 46.3681ZM610.184 41.4843C611.749 41.5608 613.207 41.7292 614.679 41.9436L613.912 38.9428L612.946 35.8503L611.488 38.9428L610.184 41.4843ZM595.871 35.0848L597.144 46.8274L600.228 46.5059L599.016 34.8551L603.695 34.5642L603.511 31.9463C598.295 32.2525 596.147 32.4515 590.977 33.2323L591.329 35.7125L595.871 35.0848ZM596.361 194.077L595.318 202.834L591.099 193.22C590.117 193.021 589.488 192.776 588.491 192.607L585.177 206.784C586.205 207.06 587.187 207.167 588.246 207.351L590.025 198.639L594.306 208.346C595.272 208.499 596.377 208.79 597.512 208.774L599.092 194.138C598.248 194.092 597.267 194.215 596.361 194.077ZM679.789 163.641L669.234 157.839L667.884 160.258L680.541 167.315L685.42 158.589L683.241 157.425L679.789 163.641ZM663.88 165.754L678.24 170.469C677.902 170.898 677.642 171.296 677.335 171.725C677.089 172.046 676.783 172.368 676.583 172.796L674.067 171.893L670.14 176.777L671.566 179.012C670.983 179.67 670.324 180.39 669.572 181.14L663.88 171.725L661.778 168.249L663.88 165.754ZM665.522 169.045L667.225 171.725L668.789 174.434L670.891 171.725L671.444 171.051L665.522 169.045ZM650.425 188.198C651.039 189.27 651.331 190.51 651.392 191.78C651.392 192.776 651.177 193.786 650.763 194.705C650.088 196.037 649.091 197.231 647.71 198.042C644.335 200.002 639.978 198.838 637.922 195.378C637.845 195.179 637.753 194.965 637.631 194.72C637.216 193.801 637.017 192.776 636.94 191.796C637.032 189.239 638.275 186.897 640.561 185.565C643.982 183.62 648.4 184.784 650.425 188.198ZM648.799 191.78C648.799 190.923 648.584 190.142 648.17 189.407C646.974 187.188 644.135 186.468 641.926 187.739C640.361 188.581 639.564 190.158 639.564 191.796C639.61 192.546 639.794 193.373 640.239 194.077C640.361 194.291 640.515 194.521 640.73 194.766C642.11 196.419 644.565 196.802 646.452 195.715C646.974 195.455 647.388 195.118 647.71 194.766C648.4 193.924 648.799 192.806 648.799 191.78ZM655.734 174.664L661.702 181.094L651.668 178.139C650.84 178.767 650.272 178.997 649.536 179.64L658.265 191.352C659.002 190.77 659.784 190.066 660.474 189.469L655.181 182.426L665.307 185.473C665.997 184.876 666.995 184.187 667.685 183.329L657.575 172.674C657.053 173.24 656.424 174.006 655.734 174.664ZM720 120.636C720 121.968 719.939 123.315 719.785 124.387L719.755 124.678L719.448 124.831C714.569 127.724 708.264 129.378 701.943 129.546C701.789 130.342 701.099 136.038 700.992 136.849C706.883 138.548 712.605 141.763 716.579 145.866L716.748 146.127V146.387C716.441 148.622 715.643 151.638 714.753 153.598L714.646 153.904L714.354 153.95C708.831 155.542 702.311 155.481 696.297 153.996C696.006 154.746 693.781 160.043 693.551 160.809C698.828 164.131 703.492 168.709 706.131 173.608L706.269 173.883L706.177 174.174C705.349 176.119 703.815 178.936 702.434 180.62L702.28 180.88H701.928C696.282 180.941 689.992 179.272 684.484 176.226C683.978 176.884 680.311 181.722 679.805 182.38C684.131 186.835 687.43 192.485 688.749 198.042L688.841 198.333L688.672 198.532C687.414 200.231 685.098 202.497 683.425 203.845L683.226 204.013L682.812 203.936C677.381 202.497 671.643 199.221 667.194 194.919C666.534 195.409 661.978 198.961 661.303 199.466C664.218 204.794 665.982 210.918 665.982 216.46V217.225L665.644 217.409C663.972 218.756 661.18 220.379 659.186 221.191L658.986 221.267L658.664 221.16C653.785 218.328 649.091 213.689 645.9 208.376C645.133 208.713 639.594 211.086 638.827 211.408C639.579 214.362 640.039 217.455 640.116 220.517C640.116 223.61 639.579 226.687 638.827 229.473L638.781 229.749L638.49 229.917C636.633 230.683 633.504 231.463 631.325 231.846L630.988 231.892L630.804 231.662C626.6 227.667 623.378 221.987 621.675 216.046C620.923 216.108 615.186 216.873 614.373 217.042C614.281 223.273 612.562 229.58 609.586 234.464L609.433 234.724L609.095 234.77C607.101 235.077 603.91 235.077 601.731 234.77L601.47 234.724L601.271 234.464C598.402 229.565 596.684 223.257 596.546 217.042C595.686 216.965 589.642 216.092 588.798 216.046C587.141 221.941 583.889 227.59 579.792 231.632L579.578 231.846L579.24 231.8C577 231.463 574.055 230.606 572.076 229.795L571.845 229.672L571.738 229.427C570.894 226.641 570.465 223.533 570.465 220.44C570.465 217.409 570.894 214.378 571.661 211.423C570.894 211.086 565.663 208.973 564.911 208.637C561.674 214.041 557.01 218.726 552.07 221.466L551.809 221.619L551.502 221.543C549.462 220.639 546.777 219.093 545.028 217.792L544.813 217.577V216.996C544.813 211.392 546.516 205.222 549.447 199.818C548.802 199.313 543.924 195.623 543.249 195.118C538.784 199.42 533.092 202.65 527.585 204.059L527.309 204.151L527.002 203.952C525.314 202.604 523.151 200.415 521.801 198.7L521.617 198.41L521.694 198.119C523.151 192.577 526.449 186.927 530.73 182.549C530.239 181.89 526.541 177.114 526.02 176.394C520.574 179.441 514.222 181.201 508.576 181.048H508.27L508.07 180.849C506.751 179.104 505.171 176.318 504.327 174.358L504.204 174.067L504.327 173.807C507.165 168.846 511.813 164.269 517.106 161.084C516.769 160.273 514.498 154.945 514.115 154.18C508.085 155.68 501.535 155.726 496.027 154.18L495.766 154.103L495.597 153.858C494.861 152.006 494.032 148.882 493.695 146.693L493.634 146.341L493.833 146.081C497.837 142.008 503.483 138.778 509.512 136.987C509.451 136.145 508.561 130.082 508.469 129.24C502.179 129.163 495.843 127.541 490.933 124.616L490.688 124.448L490.673 124.111C490.535 123.085 490.489 121.753 490.489 120.406C490.489 119.09 490.535 117.788 490.673 116.701L490.688 116.364L490.933 116.227C495.858 113.333 502.179 111.649 508.469 111.557C508.607 110.73 509.343 104.836 509.436 104.04C503.468 102.341 497.776 99.0797 493.741 95.0073L493.572 94.8083L493.634 94.4868C493.894 92.2209 494.754 89.1896 495.597 87.3065L495.689 87.0309L495.981 86.9543C501.427 85.3468 508.009 85.3927 514.053 86.8778C514.391 86.1429 516.6 80.8304 516.922 80.0343C511.583 76.8039 506.889 72.2263 504.097 67.266L503.959 66.9444L504.097 66.6536C504.971 64.6633 506.551 61.9688 507.794 60.2847L507.993 60.0244H508.331C514.038 59.9479 520.343 61.6779 525.774 64.6939C526.281 64.0815 529.993 59.0905 530.5 58.4169C526.189 53.9311 522.921 48.3124 521.525 42.755L521.463 42.51L521.586 42.2651C522.967 40.5351 525.253 38.2998 526.925 36.9832L527.186 36.8148L527.431 36.8607C533.046 38.2998 538.707 41.6221 543.111 45.9088C543.755 45.4036 548.158 42.0048 548.818 41.5149C545.78 36.2177 544.092 30.0325 544.092 24.5516V23.7249L544.369 23.5259C546.025 22.2399 548.818 20.6323 550.812 19.8209L551.027 19.6831L551.364 19.8209C556.274 22.592 560.907 27.2309 564.129 32.5587C564.911 32.2678 570.633 29.7876 571.431 29.4661C570.679 26.5113 570.219 23.434 570.265 20.3874C570.265 17.2336 570.649 14.2175 571.493 11.4465L571.539 11.0943L571.83 11.0178C573.686 10.237 576.77 9.41026 578.933 9.08875L579.286 9.04282L579.532 9.25716C583.628 13.2224 586.88 18.9176 588.614 24.9191C589.458 24.8272 595.487 24.077 596.285 23.9239C596.423 17.7541 598.11 11.4465 601.071 6.53202L601.194 6.27175L601.501 6.1952C603.664 5.93493 606.84 5.93493 608.926 6.1952L609.202 6.27175L609.371 6.53202C612.347 11.4311 614.066 17.7388 614.066 23.8627C614.971 24.0617 620.862 24.8272 621.706 24.9038C623.47 18.9023 626.707 13.2683 630.819 9.27247L631.003 9.07344L631.279 9.14999C633.519 9.39495 636.557 10.2217 638.505 11.079L638.751 11.1709L638.843 11.5077C639.686 14.2635 640.085 17.2489 640.085 20.3721C640.039 23.4493 639.579 26.5419 638.843 29.512C639.594 29.8182 645.317 32.2065 646.114 32.5433C649.29 27.2309 653.862 22.6226 658.833 19.8056L659.124 19.6678L659.416 19.8056C661.379 20.6323 664.141 22.2246 665.829 23.5412L666.074 23.6943V24.4598C666.074 30.0938 664.325 36.2483 661.379 41.4843C662.008 41.9742 666.749 45.6638 667.455 46.215C671.904 41.8976 677.58 38.5907 683.149 37.2281L683.395 37.0904L683.64 37.3506C685.328 38.5907 687.583 40.9484 688.872 42.6325L689.102 42.8775L689.01 43.1683C687.583 48.7411 684.223 54.3904 679.943 58.8149C680.434 59.5039 684.008 64.1734 684.545 64.847C690.099 61.8616 696.374 60.1622 702.066 60.2694H702.326L702.51 60.5143C703.891 62.275 705.471 65.0154 706.239 66.8832L706.423 67.2506L706.239 67.5262C703.416 72.4407 698.767 76.9877 693.444 80.2333C693.766 81.0448 695.929 86.3726 696.343 87.1227C702.311 85.6224 708.893 85.5918 714.324 87.1227L714.646 87.184L714.768 87.4902C715.52 89.3733 716.41 92.4506 716.702 94.7011L716.748 94.9767L716.517 95.2063C712.529 99.34 706.837 102.57 700.854 104.254C700.976 105.081 701.713 110.899 701.866 111.726C708.156 111.863 714.446 113.547 719.31 116.426L719.616 116.609L719.647 116.9C719.939 117.972 720 119.258 720 120.636ZM547.621 53.8393L557.041 64.3112C558.36 65.7197 559.802 65.5513 561.705 64.0662C573.61 54.7425 588.89 49.231 605.168 49.231C621.46 49.231 636.756 54.7272 648.784 64.0662C650.671 65.4441 652.067 65.7197 653.448 64.3112L662.883 53.8393C663.957 52.6757 663.957 51.0835 661.901 49.3688C646.099 37.0904 626.585 29.512 605.137 29.512C583.812 29.512 564.021 37.0904 548.495 49.43C546.486 51.0835 546.578 52.6757 547.621 53.8393ZM548.265 97.8855C547.222 97.2119 546.117 96.4464 545.212 96.8445C544.476 97.0741 543.939 97.8396 543.555 99.095C539.137 114.221 539.137 127.051 543.555 141.993C543.847 142.973 544.184 143.937 545.074 144.182C545.795 144.489 546.869 144.182 548.265 143.218L577.445 123.392C578.534 122.657 579.194 121.631 579.194 120.59C579.194 119.457 578.534 118.477 577.445 117.712L548.265 97.8855ZM554.647 80.5395C554.786 81.5959 555.998 82.1471 557.056 82.637L588.844 98.0539C590.102 98.651 591.283 98.651 592.25 98.1611C593.14 97.5793 593.723 96.5689 593.799 95.2063L596.361 60.0091C596.5 58.3097 596.254 57.3146 595.656 56.7941C594.981 56.2123 593.983 56.3807 593.032 56.5491C577.798 60.2081 566.691 66.6382 555.737 78.0287C554.862 79.0239 554.448 79.8659 554.647 80.5395ZM555.108 161.008C555.108 161.605 555.522 162.355 556.289 163.166C567.243 174.664 578.32 181.048 593.554 184.615C594.536 184.906 595.487 185.059 596.162 184.524C596.852 184.018 597.052 182.962 596.929 181.293C596.929 181.247 594.336 146.02 594.336 146.02C594.229 144.688 593.723 143.662 592.787 143.126C591.836 142.575 590.654 142.575 589.381 143.141L557.624 158.574C556.519 159.094 555.307 159.676 555.154 160.702C555.138 160.793 555.108 160.931 555.108 161.008ZM605.183 143.279C617.763 143.279 627.981 133.098 627.981 120.544C627.981 108.005 617.763 97.809 605.183 97.763C592.618 97.763 582.401 108.005 582.401 120.544C582.416 133.098 592.618 143.279 605.183 143.279ZM614.817 184.018C615.354 184.447 616.244 184.57 617.594 184.233C632.783 180.589 643.921 174.174 654.783 162.799C655.427 162.049 656.133 161.283 655.933 160.426C655.734 159.599 655.043 158.864 653.555 158.16L621.721 142.743C620.509 142.177 619.343 142.177 618.377 142.682C617.441 143.279 616.873 144.274 616.781 145.667L614.204 180.834C614.173 181.997 614.035 183.314 614.817 184.018ZM662.3 143.019C663.251 143.631 664.34 144.366 665.338 144.029C666.013 143.83 666.596 143.08 666.964 141.748C671.413 126.668 671.413 113.792 666.964 98.896C666.688 97.9621 666.258 96.9976 665.476 96.6454C664.678 96.3545 663.681 96.6914 662.254 97.6559L633.059 117.467C631.923 118.232 631.356 119.258 631.356 120.33C631.356 121.386 631.939 122.427 633.059 123.177L662.3 143.019ZM655.872 79.9731C655.902 79.376 655.534 78.6105 654.69 77.7838C643.844 66.3321 632.706 59.9326 617.426 56.3041C616.566 56.0745 615.569 55.8755 614.91 56.4572C614.219 57.0084 614.035 58.0648 614.173 59.6417L616.689 94.9154C616.766 96.2474 617.38 97.3191 618.269 97.8549C619.251 98.4061 620.417 98.3142 621.645 97.7171L653.479 82.392C654.506 81.9021 655.657 81.3663 655.887 80.2793C655.872 80.2027 655.902 80.1109 655.872 79.9731ZM519.945 142.927L533.491 139.008C534.765 138.64 535.808 137.308 535.7 135.655C530.837 110.47 537.02 90.0622 551.809 73.6961C553.313 72.6397 553.466 70.4504 552.039 68.95L542.19 59.0752C541.239 57.9882 539.49 57.9882 538.002 59.5039C519.131 79.3301 509.589 109.751 516.585 140.86C516.984 142.345 518.165 143.432 519.945 142.927ZM688.365 150.168L674.788 145.545C674.082 145.285 672.226 145.285 671.26 147.673C660.29 173.929 634.762 191.888 605.198 191.888C575.589 191.888 549.585 173.516 539.091 147.26C538.309 145.285 536.406 145.285 535.685 145.545L522.184 150.168C520.712 150.689 519.837 151.99 520.604 153.873C533.875 187.662 566.859 211.515 605.198 211.515C643.522 211.515 676.675 187.494 689.976 153.736C690.667 151.944 689.823 150.689 688.365 150.168ZM672.671 59.3508C671.336 57.728 669.142 57.9729 668.498 59.1058L658.679 68.95C657.237 70.4504 657.375 72.6244 658.879 73.6961C673.699 90.0622 679.882 110.424 675.018 135.655C674.911 137.308 675.954 138.64 677.243 139.008L690.82 142.927C692.63 143.432 693.781 142.345 694.165 140.799C701.16 109.751 691.603 79.2076 672.671 59.3508ZM641.052 55.6764L644.181 49.675L652.619 45.771C651.73 45.1433 650.778 44.6993 649.889 44.1022L644.074 46.7355L643 40.4432C641.788 39.8767 641.052 39.6165 639.794 39.1112L641.481 48.2665L638.352 54.1914L641.052 55.6764ZM625.25 191.888C621.046 192.806 617.809 193.572 613.636 194.215L614.02 196.634C615.569 196.389 616.981 196.205 618.607 196.006L620.709 207.657L623.808 207.075L621.292 195.47C622.887 195.072 624.345 194.674 625.94 194.307L625.25 191.888ZM583.935 193.924V194.705C583.72 196.634 582.401 198.578 580.283 198.823L580.774 205.544C579.792 205.314 578.673 204.993 577.629 204.549L577.522 198.226L574.684 197.016L572.382 202.589C571.447 202.283 570.511 201.977 569.606 201.533L572.52 194.751L572.873 193.909L575.251 188.305L581.725 190.801C583.168 191.336 583.827 192.622 583.935 193.924ZM581.219 193.924C581.127 193.526 580.974 193.204 580.467 192.975L576.847 191.643L576.034 193.924L575.742 194.766L575.712 194.812L579.01 196.052C579.915 196.45 580.79 195.654 581.112 194.766C581.219 194.521 581.311 194.215 581.219 193.924ZM625.173 49.0167C624.022 48.6799 623.163 48.5421 621.89 48.1746L624.237 40.1829L625.956 34.4877C628.426 35.1001 630.788 35.8962 633.135 36.6617C634.47 37.075 635.176 38.5754 635.314 40.1829C635.406 42.3569 634.317 44.7146 632.123 45.2199L632.982 51.65C631.954 51.2213 631.187 50.8998 630.036 50.4558L629.285 44.8371L626.523 43.9951L625.173 49.0167ZM627.152 41.4843L630.389 42.5253C631.279 42.7856 632.445 41.3924 632.445 40.1982C632.445 39.6318 632.246 39.1112 631.479 38.9428C630.282 38.4835 629.469 38.2845 628.165 37.9477L627.505 40.1982L627.152 41.4843ZM611.442 200.783L614.572 208.361C613.544 208.407 612.593 208.514 611.688 208.606L610.721 206.156L604.462 206.325L603.741 208.882C602.744 208.79 601.808 208.759 600.811 208.759L603.511 200.767L605.428 194.705L605.52 194.506L608.711 194.368L608.88 194.751L611.442 200.783ZM609.555 203.538L608.435 200.783L607.3 197.797L606.318 200.783L605.352 203.722L609.555 203.538ZM628.686 190.678L633.473 204.304C634.409 203.982 635.406 203.691 636.342 203.293L631.709 189.729C630.42 190.158 629.837 190.326 628.686 190.678ZM559.25 46.9499L558.452 45.5107C560.554 44.1788 562.825 43.0306 565.003 41.867C567.565 40.4585 571.186 43.8726 570.94 46.9499C570.894 47.4857 570.741 47.9909 570.419 48.4808L575.666 52.293C574.684 52.7523 573.932 53.1503 572.751 53.6555L568.148 50.3027L565.617 51.6653L568.317 56.1204C567.274 56.7787 566.629 57.1921 565.417 57.9117L559.25 46.9499ZM562.426 46.2762L562.825 46.9499L564.282 49.476L567.32 47.8838C567.596 47.746 567.765 47.3938 567.811 46.9499C567.872 45.5873 566.875 43.7348 565.448 44.5921C564.328 45.1739 563.653 45.5873 562.426 46.2762Z" fill="#C5205A"/>
<path d="M412.844 145.897L413.167 154.134C413.213 155.389 412.323 156.476 411.08 156.66C406.263 157.425 398.592 159.171 391.09 159.171C370.793 159.171 361.726 148.775 361.726 125.443H361.741C361.741 125.275 361.726 125.106 361.726 124.938C361.726 101.621 370.778 91.2104 391.09 91.2104C398.592 91.2104 406.263 92.9558 411.08 93.7212C412.307 93.905 413.213 94.992 413.167 96.2474L412.844 104.484C412.814 105.158 412.507 105.801 412.016 106.245C411.51 106.689 410.819 106.903 410.144 106.842C404.759 106.352 398.178 104.76 391.105 104.76C380.596 104.76 376.868 110.041 376.868 124.938C376.868 125.504 376.884 126.056 376.884 126.607C376.884 126.928 376.884 127.265 376.899 127.571C376.914 128.046 376.93 128.505 376.96 128.964C376.976 129.393 376.991 129.822 377.037 130.235C377.052 130.465 377.068 130.679 377.083 130.893C377.988 141.656 381.992 145.621 391.105 145.621C398.193 145.621 404.759 144.014 410.144 143.539C410.819 143.463 411.494 143.677 412.016 144.121C412.507 144.58 412.829 145.239 412.844 145.897ZM286.828 92.2974C280.246 92.6955 273.787 96.4311 269.753 99.294V95.2522C269.753 93.8897 268.648 92.7873 267.267 92.7873H257.326C255.96 92.7873 254.841 93.8897 254.841 95.2522V155.297C254.841 156.66 255.945 157.762 257.326 157.762H267.267C268.633 157.762 269.753 156.66 269.753 155.297V113.792C271.992 111.925 278.927 106.735 287.196 106.015C288.469 105.908 289.451 104.836 289.451 103.565V94.7623C289.451 94.0887 289.175 93.4457 288.669 92.9711C288.193 92.4965 287.503 92.2362 286.828 92.2974ZM321.546 129.623C315.701 130.174 312.924 132.838 312.924 137.967C312.924 141.12 313.799 146.448 319.582 146.448C326.455 146.448 335.799 143.861 335.891 143.83V128.873L321.546 129.623ZM350.787 113.226V156.308C350.787 157.027 350.465 157.701 349.944 158.175C349.391 158.65 348.67 158.849 347.98 158.757C342.932 158.053 340.524 156.476 338.13 154.639C338.023 154.685 326.854 159.186 316.867 159.186C304.839 159.186 297.935 151.608 297.935 138.38C297.935 125.458 304.256 119.733 319.736 118.584L335.906 117.283V113.364C335.906 108.403 332.96 105.556 327.806 105.556C320.718 105.556 310.607 106.382 305.223 106.872C304.548 106.949 303.872 106.719 303.351 106.275C302.86 105.831 302.538 105.188 302.507 104.515L302.185 96.278C302.139 95.0226 303.029 93.9356 304.271 93.7519C309.089 92.9864 321.086 91.2411 328.588 91.2411C343.73 91.2411 350.787 98.2223 350.787 113.226ZM209.322 129.623C203.477 130.174 200.7 132.838 200.7 137.967C200.7 141.12 201.574 146.448 207.358 146.448C214.231 146.448 223.574 143.861 223.666 143.83V128.873L209.322 129.623ZM238.548 113.226V156.308C238.548 157.027 238.241 157.701 237.704 158.175C237.152 158.65 236.431 158.849 235.74 158.757C230.693 158.053 228.284 156.476 225.891 154.639C225.799 154.685 214.615 159.186 204.627 159.186C192.599 159.186 185.711 151.608 185.711 138.38C185.711 125.458 192.016 119.733 207.511 118.584L223.682 117.283V113.364C223.682 108.403 220.736 105.556 215.597 105.556C208.509 105.556 198.398 106.382 193.014 106.872C192.339 106.949 191.663 106.719 191.142 106.275C190.651 105.831 190.329 105.188 190.313 104.515L189.991 96.278C189.945 95.0226 190.835 93.9356 192.078 93.7519C196.895 92.9864 208.892 91.2411 216.379 91.2411C231.506 91.2411 238.548 98.2223 238.548 113.226ZM31.9874 82.2542H26.5564C20.4811 82.2542 17.0139 82.7135 15.265 83.0656V108.725C18.1645 108.924 23.7489 109.215 31.2663 109.138C40.9623 109.031 46.9762 103.902 46.9762 95.7421C46.9762 89.2202 43.0487 82.2542 31.9874 82.2542ZM63.2691 154.302C63.6066 155.068 63.5299 155.94 63.085 156.644C62.6247 157.349 61.8576 157.762 60.9985 157.762H49.4616C48.495 157.762 47.5899 157.18 47.2063 156.292L32.4323 123.101C25.0836 123.055 18.7015 122.657 15.2496 122.412V155.282C15.2496 156.644 14.1604 157.747 12.7796 157.747H2.47001C1.1046 157.762 0 156.66 0 155.297V72.0579C0 70.8025 0.951184 69.7461 2.2092 69.6083C15.4337 68.1233 26.0348 67.9702 29.9776 67.9702H32.0641C57.4546 67.9702 62.7935 82.9432 62.7935 95.4819C62.7935 105.954 57.7767 113.517 47.4671 118.63L63.2691 154.302ZM462.429 147.214L462.858 155.374C462.92 156.599 462.06 157.686 460.849 157.915C457.381 158.558 452.625 159.324 449.649 159.324C434.66 159.324 430.088 153.598 430.088 134.843V106.199H424.335C422.97 106.199 421.865 105.096 421.865 103.719V95.2522C421.865 93.8897 422.97 92.7873 424.335 92.7873H430.088V82.7135C430.088 81.5653 430.855 80.5855 431.96 80.3099L441.902 77.8909C442.638 77.7225 443.405 77.8756 444.003 78.3349C444.602 78.8095 444.954 79.5138 444.954 80.2793V92.772H460.081C461.462 92.772 462.551 93.8743 462.551 95.2369V103.703C462.551 105.066 461.462 106.183 460.081 106.183H444.954V132.761C444.954 141.947 445.277 145.132 451.736 145.132C454.113 145.132 457.841 144.963 459.851 144.856C461.171 144.841 462.367 145.836 462.429 147.214ZM115.799 124.953C115.799 110.424 111.841 104.775 101.7 104.775C91.1909 104.775 87.4782 110.057 87.4782 124.953C87.4782 138.472 89.7488 145.775 101.7 145.775C113.482 145.775 115.799 138.15 115.799 124.953ZM130.926 124.953C130.926 148.622 121.92 159.171 101.7 159.171C81.4029 159.171 72.336 148.607 72.336 124.953C72.336 101.636 81.4029 91.2257 101.7 91.2257C121.644 91.2411 130.926 101.943 130.926 124.953ZM177.871 147.214L178.301 155.374C178.362 156.599 177.503 157.686 176.291 157.915C172.839 158.558 168.068 159.324 165.092 159.324C150.103 159.324 145.531 153.598 145.531 134.843V106.199H139.778C138.413 106.199 137.293 105.096 137.293 103.719V95.2522C137.293 93.8897 138.397 92.7873 139.778 92.7873H145.531V82.7135C145.531 81.5653 146.298 80.5855 147.403 80.3099L157.344 77.8909C158.081 77.7225 158.848 77.8756 159.446 78.3349C160.044 78.8095 160.413 79.5138 160.413 80.2793V92.772H175.539C176.92 92.772 178.025 93.8743 178.025 95.2369V103.703C178.025 105.066 176.936 106.183 175.539 106.183H160.413V132.761C160.413 141.947 160.735 145.132 167.194 145.132C169.587 145.132 173.3 144.963 175.309 144.856C176.629 144.841 177.81 145.836 177.871 147.214Z" fill="#C5205A"/>
<path d="M15.928 227.672C20.632 227.672 24.216 225.768 27.184 222.352L24.608 219.552C22.256 222.128 19.624 223.528 16.096 223.528C9.152 223.528 4.784 217.76 4.784 208.52C4.784 199.392 9.376 193.736 16.264 193.736C19.4 193.736 21.808 195.024 23.768 197.04L26.344 194.128C24.16 191.72 20.688 189.592 16.208 189.592C6.856 189.592 -0.0879999 196.816 -0.0879999 208.632C-0.0879999 220.616 6.744 227.672 15.928 227.672ZM38.4562 227.672C39.6322 227.672 40.4722 227.504 41.1442 227.168L40.5282 223.696C40.0802 223.808 39.8562 223.808 39.5762 223.808C38.8482 223.808 38.2322 223.304 38.2322 221.848V187.128H33.5842V221.512C33.5842 225.432 34.9842 227.672 38.4562 227.672ZM55.8096 227.672C59.5616 227.672 62.2496 225.712 64.7696 222.744H64.9376L65.3296 227H69.1376V199.784H64.4896V219.048C61.9696 222.24 60.0096 223.64 57.2656 223.64C53.6816 223.64 52.1136 221.456 52.1136 216.416V199.784H47.4656V217.032C47.4656 223.976 50.0416 227.672 55.8096 227.672ZM90.3586 227.672C96.5746 227.672 102.175 222.24 102.175 212.944C102.175 204.544 98.3666 199.112 91.3666 199.112C88.3426 199.112 85.3186 200.736 82.7986 202.864L82.9666 197.992V187.128H78.3186V227H82.0146L82.4626 224.2H82.6306C85.0386 226.384 87.8386 227.672 90.3586 227.672ZM89.5746 223.752C87.7826 223.752 85.3186 223.024 82.9666 220.952V206.728C85.5426 204.264 87.8946 203.032 90.1906 203.032C95.2866 203.032 97.3586 207.008 97.3586 213C97.3586 219.72 94.0546 223.752 89.5746 223.752ZM131.121 227.672C137.785 227.672 143.777 222.464 143.777 213.448C143.777 204.32 137.785 199.112 131.121 199.112C124.457 199.112 118.521 204.32 118.521 213.448C118.521 222.464 124.457 227.672 131.121 227.672ZM131.121 223.808C126.473 223.808 123.337 219.664 123.337 213.448C123.337 207.176 126.473 202.976 131.121 202.976C135.825 202.976 138.961 207.176 138.961 213.448C138.961 219.664 135.825 223.808 131.121 223.808ZM151.673 227H156.321V203.536H162.033V199.784H156.321V195.528C156.321 192.056 157.553 190.208 160.129 190.208C161.081 190.208 162.089 190.432 163.153 190.768L164.161 187.352C163.041 186.848 161.305 186.456 159.625 186.456C154.193 186.456 151.673 189.984 151.673 195.528V199.784L147.977 200.064V203.536H151.673V227ZM178.899 227H190.659C198.835 227 204.547 223.472 204.547 216.248C204.547 211.208 201.467 208.296 197.099 207.456V207.232C200.515 206.112 202.475 202.864 202.475 199.224C202.475 192.784 197.267 190.264 189.819 190.264H178.899V227ZM183.603 205.888V194.016H189.203C194.915 194.016 197.827 195.584 197.827 199.84C197.827 203.592 195.251 205.888 189.035 205.888H183.603ZM183.603 223.248V209.472H189.987C196.371 209.472 199.899 211.544 199.899 216.08C199.899 221.008 196.259 223.248 189.987 223.248H183.603ZM211.373 227H216.021V199.784H211.373V227ZM213.725 194.184C215.517 194.184 216.805 193.008 216.805 191.16C216.805 189.368 215.517 188.136 213.725 188.136C211.933 188.136 210.645 189.368 210.645 191.16C210.645 193.008 211.933 194.184 213.725 194.184ZM225.209 227H229.857V209.528C231.705 204.936 234.449 203.312 236.745 203.312C237.809 203.312 238.425 203.424 239.209 203.648L240.217 199.672C239.377 199.28 238.537 199.112 237.305 199.112C234.281 199.112 231.481 201.296 229.577 204.712H229.409L229.017 199.784H225.209V227ZM244.678 227H249.326V207.288C251.846 204.488 254.086 203.144 256.102 203.144C259.574 203.144 261.142 205.272 261.142 210.368V227H265.79V207.288C268.31 204.488 270.494 203.144 272.622 203.144C276.038 203.144 277.662 205.272 277.662 210.368V227H282.31V209.752C282.31 202.808 279.622 199.112 274.022 199.112C270.718 199.112 267.862 201.24 265.062 204.264C263.942 201.072 261.702 199.112 257.502 199.112C254.254 199.112 251.454 201.128 249.046 203.704H248.878L248.486 199.784H244.678V227ZM291.108 227H295.756V199.784H291.108V227ZM293.46 194.184C295.252 194.184 296.54 193.008 296.54 191.16C296.54 189.368 295.252 188.136 293.46 188.136C291.668 188.136 290.38 189.368 290.38 191.16C290.38 193.008 291.668 194.184 293.46 194.184ZM304.944 227H309.592V207.288C312.28 204.544 314.24 203.144 316.984 203.144C320.568 203.144 322.136 205.272 322.136 210.368V227H326.784V209.752C326.784 202.808 324.208 199.112 318.44 199.112C314.688 199.112 311.888 201.128 309.312 203.704H309.144L308.752 199.784H304.944V227ZM344.753 239.544C353.209 239.544 358.529 235.176 358.529 230.08C358.529 225.6 355.337 223.584 349.009 223.584H343.745C340.105 223.584 338.985 222.352 338.985 220.672C338.985 219.16 339.713 218.264 340.721 217.424C341.953 218.04 343.409 218.376 344.753 218.376C350.297 218.376 354.721 214.736 354.721 208.912C354.721 206.616 353.825 204.6 352.537 203.368H358.081V199.784H348.617C347.609 199.392 346.265 199.112 344.753 199.112C339.209 199.112 334.505 202.864 334.505 208.8C334.505 212.048 336.241 214.68 338.033 216.136V216.36C336.633 217.312 335.065 219.104 335.065 221.4C335.065 223.528 336.129 224.984 337.473 225.824V226.048C335.009 227.728 333.497 229.912 333.497 232.208C333.497 236.912 338.089 239.544 344.753 239.544ZM344.753 215.24C341.617 215.24 338.985 212.776 338.985 208.8C338.985 204.824 341.561 202.472 344.753 202.472C347.945 202.472 350.521 204.88 350.521 208.8C350.521 212.776 347.889 215.24 344.753 215.24ZM345.425 236.296C340.497 236.296 337.529 234.504 337.529 231.592C337.529 230.024 338.369 228.4 340.329 227C341.505 227.336 342.793 227.448 343.857 227.448H348.505C352.089 227.448 353.993 228.288 353.993 230.808C353.993 233.608 350.577 236.296 345.425 236.296ZM363.842 227H368.49V207.288C371.178 204.544 373.138 203.144 375.882 203.144C379.466 203.144 381.034 205.272 381.034 210.368V227H385.682V209.752C385.682 202.808 383.106 199.112 377.338 199.112C373.586 199.112 370.842 201.128 368.322 203.592L368.49 197.992V187.128H363.842V227ZM400.575 227.672C403.991 227.672 406.959 225.936 409.535 223.752H409.703L410.151 227H413.959V210.256C413.959 203.536 411.103 199.112 404.495 199.112C400.127 199.112 396.319 200.96 393.799 202.64L395.591 205.776C397.719 204.376 400.575 202.976 403.711 202.976C408.135 202.976 409.255 206.28 409.311 209.696C397.663 210.984 392.623 213.896 392.623 219.944C392.623 224.872 396.039 227.672 400.575 227.672ZM401.863 223.864C399.231 223.864 397.159 222.688 397.159 219.664C397.159 216.136 400.127 214.064 409.311 213V220.392C406.679 222.688 404.495 223.864 401.863 223.864ZM422.522 227H427.17V207.288C429.69 204.488 431.93 203.144 433.946 203.144C437.418 203.144 438.986 205.272 438.986 210.368V227H443.634V207.288C446.154 204.488 448.338 203.144 450.466 203.144C453.882 203.144 455.506 205.272 455.506 210.368V227H460.154V209.752C460.154 202.808 457.466 199.112 451.866 199.112C448.562 199.112 445.706 201.24 442.906 204.264C441.786 201.072 439.546 199.112 435.346 199.112C432.098 199.112 429.298 201.128 426.89 203.704H426.722L426.33 199.784H422.522V227Z" fill="#C5205A"/>
</g>
<defs>
<clipPath id="clip0">
<rect width="720" height="240" fill="white"/>
</clipPath>
</defs>
</svg>
