<svg viewBox="0 0 149.55 149.57" xmlns="http://www.w3.org/2000/svg"><path d="m42.48 112.96-4.99 5.92-1.55-1.35 5.16-5.74c-.82-.76-1.44-1.44-2.23-2.14l1.15-1.15c1.96 1.86 3.69 3.29 5.86 5.04l-.99 1.27c-.8-.63-1.62-1.22-2.41-1.85m-10-14.72-8.09 4.72c.29.57.6 1.23.96 1.78l8.11-4.74c-.4-.71-.62-1.09-.98-1.76m5.2 7.55-4.38 3.79 2.23-6.49c-.4-.56-.58-.94-.99-1.45l-7.85 5.33c.35.53.78 1.01 1.15 1.56l4.72-3.27-2.22 6.54c.38.43.77 1.09 1.31 1.53l7.27-6.23c-.4-.44-.89-.83-1.24-1.31m10.66 11.6c1.28.69 2.52 1.42 3.92 2.08l.84-1.39c-1.93-1-3.75-2.14-5.37-3.27l-5.33 7.83c2.02 1.34 3.87 2.46 5.95 3.66l.86-1.38-4.3-2.53 1.45-2.04 2.85 1.71.83-1.33c-.91-.5-1.87-1.08-2.87-1.69zm26.37-29.17c-7.37 0-13.39-6.05-13.39-13.4 0-7.4 6.02-13.42 13.39-13.42 7.42 0 13.38 6.01 13.38 13.42 0 7.39-5.99 13.4-13.38 13.4m.17-4.43c4.89 0 8.91-4.02 8.91-8.91 0-4.07-2.83-7.6-6.72-8.57-.05-.4-.16-2.26-.16-2.26h-4.49s-.1 2.02-.14 2.42c-3.73 1.13-6.25 4.53-6.25 8.41 0 4.89 4.02 8.91 8.85 8.91m-19.68-59.57v-.44c-.05-2.42 1.81-4.42 4.25-4.62 2.58-.25 4.87 1.65 5.09 4.24v.38c0 2.42-1.83 4.49-4.31 4.72-2.51.22-4.82-1.67-5.03-4.28m1.71-.16c.13 1.67 1.6 2.88 3.21 2.75 1.58-.16 2.77-1.43 2.77-3.02.06-.08 0-.17 0-.27-.14-1.68-1.58-2.85-3.25-2.7-1.59.12-2.78 1.38-2.72 2.97v.27zm19.5 2.31c-.79-.01-1.15-.01-1.92-.01l2.34-4.84 2.12-4.4 2.1.22 1.1 4.18 1.53 5.62c-.71-.13-1.26-.24-1.92-.28l-.54-1.76c-1.39-.22-2.64-.28-3.93-.34zm1.56-3.19c1.02.05 1.97.16 2.93.3l-.5-1.96-.63-2.02-.95 2.02zm-9.33-4.18.83 7.67 2.01-.21-.79-7.61 3.05-.19-.12-1.71c-3.4.2-4.8.33-8.17.84l.23 1.62zm.32 103.85-.68 5.72-2.75-6.28c-.64-.13-1.05-.29-1.7-.4l-2.16 9.26c.67.18 1.31.25 2 .37l1.16-5.69 2.79 6.34c.63.1 1.35.29 2.09.28l1.03-9.56c-.55-.03-1.2.05-1.78-.04m54.38-19.88-6.88-3.79-.88 1.58 8.25 4.61 3.18-5.7-1.42-.76zm-10.37 1.38 9.36 3.08c-.22.28-.39.54-.59.82-.16.21-.36.42-.49.7l-1.64-.59-2.56 3.19.93 1.46c-.38.43-.81.9-1.3 1.39l-3.71-6.15-1.37-2.27zm1.07 2.15 1.11 1.75 1.02 1.77 1.37-1.77.36-.44zm-9.84 12.51c.4.7.59 1.51.63 2.34 0 .65-.14 1.31-.41 1.91-.44.87-1.09 1.65-1.99 2.18-2.2 1.28-5.04.52-6.38-1.74-.05-.13-.11-.27-.19-.43-.27-.6-.4-1.27-.45-1.91.06-1.67.87-3.2 2.36-4.07 2.23-1.27 5.11-.51 6.43 1.72m-1.06 2.34c0-.56-.14-1.07-.41-1.55-.78-1.45-2.63-1.92-4.07-1.09-1.02.55-1.54 1.58-1.54 2.65.03.49.15 1.03.44 1.49.08.14.18.29.32.45.9 1.08 2.5 1.33 3.73.62.34-.17.61-.39.82-.62.45-.55.71-1.28.71-1.95m4.52-11.18 3.89 4.2-6.54-1.93c-.54.41-.91.56-1.39.98l5.69 7.65c.48-.38.99-.84 1.44-1.23l-3.45-4.6 6.6 1.99c.45-.39 1.1-.84 1.55-1.4l-6.59-6.96c-.34.37-.75.87-1.2 1.3m41.89-35.29c0 .87-.04 1.75-.14 2.45l-.02.19-.2.1c-3.18 1.89-7.29 2.97-11.41 3.08-.1.52-.55 4.24-.62 4.77 3.84 1.11 7.57 3.21 10.16 5.89l.11.17v.17c-.2 1.46-.72 3.43-1.3 4.71l-.07.2-.19.03c-3.6 1.04-7.85 1-11.77.03-.19.49-1.64 3.95-1.79 4.45 3.44 2.17 6.48 5.16 8.2 8.36l.09.18-.06.19c-.54 1.27-1.54 3.11-2.44 4.21l-.1.17h-.23c-3.68.04-7.78-1.05-11.37-3.04-.33.43-2.72 3.59-3.04 4.02 2.82 2.91 4.97 6.6 5.83 10.23l.06.19-.11.13c-.82 1.11-2.33 2.59-3.42 3.47l-.13.11-.27-.05c-3.54-.94-7.28-3.08-10.18-5.89-.43.32-3.4 2.64-3.84 2.97 1.9 3.48 3.05 7.48 3.05 11.1v.5l-.22.12c-1.09.88-2.91 1.94-4.21 2.47l-.13.05-.22-.07c-3.18-1.85-6.24-4.88-8.32-8.35-.5.22-4.11 1.77-4.61 1.98.49 1.93.79 3.95.84 5.95 0 2.02-.35 4.03-.84 5.85l-.03.18-.19.11c-1.21.5-3.25 1.01-4.67 1.26l-.22.03-.12-.15c-2.74-2.61-4.84-6.32-5.95-10.2-.49.04-4.23.54-4.76.65-.06 4.07-1.18 8.19-3.12 11.38l-.1.17-.22.03c-1.3.2-3.38.2-4.8 0l-.17-.03-.13-.17c-1.87-3.2-2.99-7.32-3.08-11.38-.56-.05-4.5-.62-5.05-.65-1.08 3.85-3.2 7.54-5.87 10.18l-.14.14-.22-.03c-1.46-.22-3.38-.78-4.67-1.31l-.13-.1-.07-.16c-.55-1.82-.83-3.85-.83-5.87 0-1.98.28-3.96.78-5.89-.5-.22-3.91-1.6-4.4-1.82-2.11 3.53-5.15 6.59-8.37 8.38l-.17.1-.2-.05c-1.33-.59-3.08-1.6-4.22-2.45l-.14-.14v-.38c0-3.66 1.11-7.69 3.02-11.22-.42-.33-3.6-2.74-4.04-3.07-2.91 2.81-6.62 4.92-10.21 5.84l-.18.06-.2-.13c-1.1-.88-2.51-2.31-3.39-3.43l-.12-.19.05-.19c.95-3.62 3.1-7.31 5.89-10.17-.32-.43-2.73-3.55-3.07-4.02-3.55 1.99-7.69 3.14-11.37 3.04h-.2l-.13-.13c-.86-1.14-1.89-2.96-2.44-4.24l-.08-.19.08-.17c1.85-3.24 4.88-6.23 8.33-8.31-.22-.53-1.7-4.01-1.95-4.51-3.93.98-8.2 1.01-11.79 0l-.17-.05-.11-.16c-.48-1.21-1.02-3.25-1.24-4.68l-.04-.23.13-.17c2.65-2.68 6.32-4.78 10.25-5.95-.04-.55-.62-4.51-.68-5.06-4.1-.05-8.23-1.11-11.43-3.02l-.16-.11-.01-.22c-.09-.66-.12-1.53-.12-2.41 0-.86.03-1.71.12-2.42l.01-.22.16-.09c3.21-1.89 7.33-2.99 11.43-3.05.09-.54.57-4.39.63-4.91-3.89-1.11-7.6-3.24-10.23-5.9l-.11-.13.04-.21c.17-1.48.73-3.46 1.28-4.69l.06-.18.19-.05c3.55-1.05 7.84-1.02 11.78-.05.22-.48 1.66-3.95 1.87-4.47-3.48-2.11-6.54-5.1-8.36-8.34l-.07-.2.09-.19c.57-1.3 1.6-3.06 2.41-4.16l.13-.17h.22c3.72-.05 7.83 1.08 11.37 3.05.33-.4 2.75-3.66 3.08-4.1-2.81-2.93-4.94-6.6-5.85-10.23l-.04-.16.08-.16c.9-1.13 2.39-2.59 3.48-3.45l.17-.11.16.03c3.66.94 7.35 3.11 10.22 5.91.42-.33 3.29-2.55 3.72-2.87-1.98-3.46-3.08-7.5-3.08-11.08v-.54l.18-.13c1.08-.84 2.9-1.89 4.2-2.42l.14-.09.22.09c3.2 1.81 6.22 4.84 8.32 8.32.51-.19 4.24-1.81 4.76-2.02-.49-1.93-.79-3.94-.76-5.93 0-2.06.25-4.03.8-5.84l.03-.23.19-.05c1.21-.51 3.22-1.05 4.63-1.26l.23-.03.16.14c2.67 2.59 4.79 6.31 5.92 10.23.55-.06 4.48-.55 5-.65.09-4.03 1.19-8.15 3.12-11.36l.08-.17.2-.05c1.41-.17 3.48-.17 4.84 0l.18.05.11.17c1.94 3.2 3.06 7.32 3.06 11.32.59.13 4.43.63 4.98.68 1.15-3.92 3.26-7.6 5.94-10.21l.12-.13.18.05c1.46.16 3.44.7 4.71 1.26l.16.06.06.22c.55 1.8.81 3.75.81 5.79-.03 2.01-.33 4.03-.81 5.97.49.2 4.22 1.76 4.74 1.98 2.07-3.47 5.05-6.48 8.29-8.32l.19-.09.19.09c1.28.54 3.08 1.58 4.18 2.44l.16.1v.5c0 3.68-1.14 7.7-3.06 11.12.41.32 3.5 2.73 3.96 3.09 2.9-2.82 6.6-4.98 10.23-5.87l.16-.09.16.17c1.1.81 2.57 2.35 3.41 3.45l.15.16-.06.19c-.93 3.64-3.12 7.33-5.91 10.22.32.45 2.65 3.5 3 3.94 3.62-1.95 7.71-3.06 11.42-2.99h.17l.12.16c.9 1.15 1.93 2.94 2.43 4.16l.12.24-.12.18c-1.84 3.21-4.87 6.18-8.34 8.3.21.53 1.62 4.01 1.89 4.5 3.89-.98 8.18-1 11.72 0l.21.04.08.2c.49 1.23 1.07 3.24 1.26 4.71l.03.18-.15.15c-2.6 2.7-6.31 4.81-10.21 5.91.08.54.56 4.34.66 4.88 4.1.09 8.2 1.19 11.37 3.07l.2.12.02.19c.12.71.16 1.55.16 2.45m-112.36-43.63 6.14 6.84c.86.92 1.8.81 3.05-.16 7.76-6.09 17.72-9.69 28.33-9.69 10.62 0 20.59 3.59 28.43 9.69 1.23.9 2.14 1.08 3.04.16l6.15-6.84c.7-.76.7-1.8-.64-2.92-10.3-8.02-23.02-12.97-37-12.97-13.9 0-26.8 4.95-36.92 13.01-1.33 1.08-1.27 2.12-.58 2.88m.42 28.77c-.68-.44-1.4-.94-1.99-.68-.48.15-.83.65-1.08 1.47-2.88 9.88-2.88 18.26 0 28.02.19.64.41 1.27.99 1.43.47.2 1.17 0 2.08-.63l19.02-12.95c.71-.48 1.14-1.15 1.14-1.83 0-.74-.43-1.38-1.14-1.88zm4.16-11.33c.09.69.88 1.05 1.57 1.37l20.72 10.07c.82.39 1.59.39 2.22.07.58-.38.96-1.04 1.01-1.93l1.67-22.99c.09-1.11-.06-1.76-.46-2.1-.44-.38-1.09-.27-1.71-.16-9.93 2.39-17.17 6.59-24.31 14.03-.58.65-.84 1.2-.71 1.64m.3 52.56c0 .39.27.88.77 1.41 7.14 7.51 14.36 11.68 24.29 14.01.64.19 1.26.29 1.7-.06.45-.33.58-1.02.5-2.11 0-.03-1.69-23.04-1.69-23.04-.07-.87-.4-1.54-1.01-1.89-.62-.36-1.39-.36-2.22.01l-20.7 10.08c-.72.34-1.51.72-1.61 1.39-.01.06-.03.15-.03.2m32.64-11.58c8.2 0 14.86-6.65 14.86-14.85 0-8.19-6.66-14.85-14.86-14.88-8.19 0-14.85 6.69-14.85 14.88 0 8.2 6.66 14.85 14.85 14.85m6.28 26.61c.35.28.93.36 1.81.14 9.9-2.38 17.16-6.57 24.24-14 .42-.49.88-.99.75-1.55-.13-.54-.58-1.02-1.55-1.48l-20.76-10.07c-.79-.37-1.55-.37-2.18-.04-.61.39-.98 1.04-1.04 1.95l-1.68 22.97c-.02.76-.11 1.62.41 2.08m30.95-26.78c.62.4 1.33.88 1.98.66.44-.13.82-.62 1.06-1.49 2.9-9.85 2.9-18.26 0-27.99-.18-.61-.46-1.24-.97-1.47-.52-.19-1.17.03-2.1.66l-19.03 12.94c-.74.5-1.11 1.17-1.11 1.87 0 .69.38 1.37 1.11 1.86zm-4.2-41.18c.02-.39-.22-.89-.77-1.43-7.07-7.48-14.33-11.66-24.29-14.03-.56-.15-1.21-.28-1.64.1-.45.36-.57 1.05-.48 2.08l1.64 23.04c.05.87.45 1.57 1.03 1.92.64.36 1.4.3 2.2-.09l20.75-10.01c.67-.32 1.42-.67 1.57-1.38-.01-.05.02-.11-.01-.2m-88.59 41.12 8.83-2.56c.83-.24 1.51-1.11 1.44-2.19-3.17-16.45.86-29.78 10.5-40.47.98-.69 1.08-2.12.15-3.1l-6.42-6.45c-.62-.71-1.76-.71-2.73.28-12.3 12.94-18.52 32.82-13.96 53.13.25.98 1.02 1.69 2.19 1.36m109.78 4.73-8.85-3.02c-.46-.17-1.67-.17-2.3 1.39-7.15 17.15-23.79 28.88-43.06 28.88-19.3 0-36.25-12-43.09-29.15-.51-1.29-1.75-1.29-2.22-1.12l-8.8 3.02c-.96.34-1.53 1.19-1.03 2.42 8.65 22.07 30.15 37.65 55.14 37.65 24.98 0 46.59-15.69 55.26-37.74.45-1.17-.1-1.99-1.05-2.33m-10.23-59.32c-.87-1.06-2.3-.9-2.72-.16l-6.4 6.43c-.94.98-.85 2.4.13 3.1 9.66 10.69 13.69 23.99 10.52 40.47-.07 1.08.61 1.95 1.45 2.19l8.85 2.56c1.18.33 1.93-.38 2.18-1.39 4.56-20.28-1.68-40.23-14.01-53.2m-20.61-2.4 2.04-3.92 5.5-2.55c-.58-.41-1.2-.7-1.78-1.09l-3.79 1.72-.7-4.11c-.79-.37-1.27-.54-2.09-.87l1.1 5.98-2.04 3.87zm-10.3 88.97c-2.74.6-4.85 1.1-7.57 1.52l.25 1.58c1.01-.16 1.93-.28 2.99-.41l1.37 7.61 2.02-.38-1.64-7.58c1.04-.26 1.99-.52 3.03-.76zm-26.93 1.33v.51c-.14 1.26-1 2.53-2.38 2.69l.32 4.39c-.64-.15-1.37-.36-2.05-.65l-.07-4.13-1.85-.79-1.5 3.64c-.61-.2-1.22-.4-1.81-.69l1.9-4.43.23-.55 1.55-3.66 4.22 1.63c.94.35 1.37 1.19 1.44 2.04m-1.77 0c-.06-.26-.16-.47-.49-.62l-2.36-.87-.53 1.49-.19.55-.02.03 2.15.81c.59.26 1.16-.26 1.37-.84.07-.16.13-.36.07-.55m28.64-94.65c-.75-.22-1.31-.31-2.14-.55l1.53-5.22 1.12-3.72c1.61.4 3.15.92 4.68 1.42.87.27 1.33 1.25 1.42 2.3.06 1.42-.65 2.96-2.08 3.29l.56 4.2c-.67-.28-1.17-.49-1.92-.78l-.49-3.67-1.8-.55zm1.3-4.92 2.11.68c.58.17 1.34-.74 1.34-1.52 0-.37-.13-.71-.63-.82-.78-.3-1.31-.43-2.16-.65l-.43 1.47zm-10.24 104.05 2.04 4.95c-.67.03-1.29.1-1.88.16l-.63-1.6-4.08.11-.47 1.67c-.65-.06-1.26-.08-1.91-.08l1.76-5.22 1.25-3.96.06-.13 2.08-.09.11.25zm-1.23 1.8-.73-1.8-.74-1.95-.64 1.95-.63 1.92zm12.46-8.4 3.12 8.9c.61-.21 1.26-.4 1.87-.66l-3.02-8.87c-.83.29-1.21.4-1.97.63m-45.25-93.88-.52-.94c1.37-.87 2.85-1.62 4.27-2.38 1.67-.92 4.03 1.31 3.87 3.32-.03.35-.13.68-.34 1l3.42 2.49c-.64.3-1.13.56-1.9.89l-3-2.19-1.65.89 1.76 2.91c-.68.43-1.1.7-1.89 1.17zm2.07-.44.26.44.95 1.65 1.98-1.04c.18-.09.29-.32.32-.61.04-.89-.61-2.1-1.54-1.54-.73.38-1.18.65-1.97 1.1" fill="#fcfcfd"/></svg>