<svg viewBox="0 0 469.31319 149.5656" xmlns="http://www.w3.org/2000/svg"><g fill="hsl(339, 72%, 45%)" transform="translate(-46.5034 -46.5372)"><path d="m408.74539 159.4968-4.98639 5.9174-1.554-1.347 5.15689-5.745c-.8166-.7569-1.4404-1.4385-2.2315-2.1423l1.1482-1.1522c1.9638 1.856 3.6922 3.2945 5.8586 5.0389l-.9939 1.27c-.7892-.6186-1.6026-1.2132-2.3979-1.8398m-9.9952-14.7179-8.09019 4.7248c.29039.5658.60249 1.2312.95769 1.7769l8.10631-4.7368c-.39541-.7139-.61861-1.0955-.97381-1.7649m5.1914 7.5445-4.3818 3.7875 2.2334-6.4916c-.3955-.556-.578-.9434-.9919-1.4547l-7.855 5.3294c.3511.5274.7812 1.0143 1.1544 1.56l4.7225-3.2721-2.2151 6.5403a11.8217 11.8217 0 0 0 1.3126 1.5335l7.2664-6.2319a15.11463 15.11463 0 0 1 -1.2455-1.3004m10.6625 11.6078c1.27591.6938 2.5235 1.418 3.9192 2.0794l.8379-1.3856a48.61178 48.61178 0 0 1 -5.3718-3.2682l-5.3333 7.8266c2.0225 1.3389 3.8707 2.4566 5.948 3.6556l.8601-1.3815-4.3006-2.5338 1.45241-2.0408 2.84819 1.7121.8297-1.3307c-.91489-.5032-1.8683-1.0833-2.8665-1.694zm26.3722-29.1738a13.40823 13.40823 0 1 1 13.38071-13.3971 13.43888 13.43888 0 0 1 -13.38071 13.3971m.1665-4.4304a8.87513 8.87513 0 0 0 2.1887-17.4848c-.0487-.3997-.1561-2.2579-.1561-2.2579h-4.4936s-.1034 2.0185-.1399 2.4202a8.76784 8.76784 0 0 0 -6.2462 8.4117 8.9329 8.9329 0 0 0 8.8471 8.9108m-19.6819-59.567v-.4399a4.5537 4.5537 0 0 1 4.252-4.6153 4.6477 4.6477 0 0 1 5.0898 4.24v.3753a4.73251 4.73251 0 0 1 -4.3109 4.7185 4.6766 4.6766 0 0 1 -5.0309-4.2786m1.7163-.1661a2.98785 2.98785 0 0 0 3.2093 2.7477 3.0218 3.0218 0 0 0 2.7669-3.0215c.0568-.0793 0-.1705 0-.2749a2.93554 2.93554 0 0 0 -3.2517-2.6952 2.8623 2.8623 0 0 0 -2.7245 2.9701zm19.5031 2.3176c-.7871-.008-1.1502-.008-1.9212-.008l2.3351-4.8444 2.118-4.4011 2.1017.2171 1.1035 4.184 1.5255 5.6233a14.4659 14.4659 0 0 0 -1.9231-.2768l-.54379-1.7628a34.5126 34.5126 0 0 0 -3.92741-.3379zm1.5581-3.1899c1.0223.0487 1.9718.1622 2.9294.2981l-.5032-1.9606-.6329-2.0195-.9493 2.0195zm-9.3319-4.181.8278 7.6711 2.0144-.212-.789-7.6133 3.0469-.1877-.11559-1.7092a72.78681 72.78681 0 0 0 -8.17131.8358l.22531 1.6229zm.3187 103.8436-.6837 5.7248-2.7509-6.2786c-.6449-.1259-1.0467-.2921-1.6959-.3955l-2.1585 9.2585c.6675.1787 1.3086.2496 1.9963.3694l1.1563-5.6864 2.7873 6.3355a11.70207 11.70207 0 0 0 2.0854.2759l1.0326-9.5629a15.84115 15.84115 0 0 1 -1.7689-.0407m54.3814-19.8805-6.8771-3.7875-.8803 1.5843 8.2525 4.6071 3.1808-5.7005-1.4179-.7588zm-10.3703 1.3854 9.3642 3.0754c-.219.278-.3936.5438-.5924.8237a3.86368 3.86368 0 0 0 -.4869.6979l-1.6391-.5903-2.556 3.1929.9331 1.4628c-.3814.4341-.8113.9047-1.29819 1.3855l-3.70831-6.1488-1.3716-2.2659zm1.0651 2.1442 1.1097 1.7549 1.0163 1.7689 1.3692-1.7689.3571-.4402zm-9.8388 12.5148a5.12944 5.12944 0 0 1 .6267 2.3431 4.749 4.749 0 0 1 -.4057 1.9128 5.1006 5.1006 0 0 1 -1.9882 2.175 4.67854 4.67854 0 0 1 -6.3779-1.7447 2.73857 2.73857 0 0 0 -.1947-.4303 6.01557 6.01557 0 0 1 -.4546-1.9128 4.71407 4.71407 0 0 1 8.7944-2.3431m-1.061 2.3431a3.14582 3.14582 0 0 0 -.4119-1.5541 3.01425 3.01425 0 0 0 -5.6092 1.5541 3.24086 3.24086 0 0 0 .4382 1.493 2.33663 2.33663 0 0 0 .3246.4525 2.95284 2.95284 0 0 0 3.72871.6187 2.84391 2.84391 0 0 0 .82339-.6187 3.1537 3.1537 0 0 0 .7062-1.9455m4.5198-11.1879 3.8949 4.1993-6.5382-1.9292c-.5438.4137-.9088.5578-1.3896.9778l5.6902 7.6479c.4848-.3774.9881-.838 1.4425-1.2253l-3.4529-4.601 6.6032 1.9881a11.25451 11.25451 0 0 0 1.5478-1.3978l-6.5868-6.9643c-.351.3814-.7567.8824-1.2111 1.3045m41.8952-35.2871a18.67435 18.67435 0 0 1 -.1378 2.4454l-.0246.1886-.2026.1036a24.05842 24.05842 0 0 1 -11.4071 3.0834c-.0994.5214-.5457 4.244-.6229 4.7674a23.49983 23.49983 0 0 1 10.1635 5.8912l.1053.1664v.1703a19.4524 19.4524 0 0 1 -1.2981 4.7065l-.065.2008-.1866.0304a23.3668 23.3668 0 0 1 -11.7742.0265c-.1867.4869-1.639 3.9456-1.785 4.4487a23.81385 23.81385 0 0 1 8.19551 8.356l.08929.1785-.0568.1867a19.85656 19.85656 0 0 1 -2.4426 4.2114l-.0952.1662h-.2272a23.51354 23.51354 0 0 1 -11.36849-3.045c-.32661.4281-2.72031 3.5908-3.045 4.0169a22.83638 22.83638 0 0 1 5.83449 10.2342l.0567.1888-.1056.1318a22.33335 22.33335 0 0 1 -3.4222 3.4732l-.1298.1116-.2698-.0529a24.23982 24.23982 0 0 1 -10.1837-5.8931c-.4302.3246-3.39809 2.6433-3.8382 2.9718a23.98919 23.98919 0 0 1 3.053 11.0987v.5031l-.2211.1238a19.613 19.613 0 0 1 -4.2114 2.4668l-.1299.0548-.215-.0711a24.49456 24.49456 0 0 1 -8.3216-8.3457c-.50289.2211-4.11389 1.7668-4.60689 1.9839a27.36581 27.36581 0 0 1 .84189 5.9481 22.70479 22.70479 0 0 1 -.84189 5.8545l-.02621.1806-.1949.1055a25.8045 25.8045 0 0 1 -4.6658 1.2558l-.21909.0304-.12161-.1523a22.9771 22.9771 0 0 1 -5.946-10.1958c-.489.0365-4.2299.5438-4.7573.6531a23.19617 23.19617 0 0 1 -3.1159 11.3829l-.1035.1683-.2211.0283a19.54449 19.54449 0 0 1 -4.7957 0l-.1745-.0283-.1257-.1683a24.14359 24.14359 0 0 1 -3.0836-11.3829c-.5578-.0548-4.4995-.6166-5.047-.6531a23.55182 23.55182 0 0 1 -5.8669 10.1816l-.142.1361-.2211-.0323a22.31219 22.31219 0 0 1 -4.674-1.3128l-.1542-.0751-.0651-.1641a20.71035 20.71035 0 0 1 -.8255-5.8709 23.399 23.399 0 0 1 .783-5.8893c-.5031-.2171-3.91129-1.5985-4.4041-1.8196a23.59285 23.59285 0 0 1 -8.366 8.3763l-.1706.0952-.2047-.0547a24.85077 24.85077 0 0 1 -4.2177-2.4505l-.1379-.1381v-.3835a24.27043 24.27043 0 0 1 3.02471-11.2182c-.42191-.3286-3.60271-2.7447-4.039-3.0713a23.73571 23.73571 0 0 1 -10.20821 5.8425l-.1846.0569-.1966-.128a24.83612 24.83612 0 0 1 -3.392-3.4264l-.11959-.1947.05269-.1886a23.79358 23.79358 0 0 1 5.8912-10.1717c-.3205-.434-2.7266-3.5521-3.0673-4.0205a22.95269 22.95269 0 0 1 -11.3685 3.0429h-.1958l-.1268-.1258a23.54305 23.54305 0 0 1 -2.4423-4.244l-.0833-.1928.0833-.1703a23.88591 23.88591 0 0 1 8.3316-8.3052c-.2232-.5316-1.6959-4.0147-1.9457-4.5058a23.70573 23.70573 0 0 1 -11.7883 0l-.1746-.0548-.1053-.1621a24.979 24.979 0 0 1 -1.2375-4.6841l-.0405-.2251.1298-.1685a24.12554 24.12554 0 0 1 10.2162-5.9359c-.0428-.5496-.6208-4.5095-.6776-5.0573a23.45527 23.45527 0 0 1 -11.43429-3.0207l-.16141-.1053-.0141-.2211a19.54691 19.54691 0 0 1 -.1158-2.4172 20.43581 20.43581 0 0 1 .1158-2.4241l.0141-.2211.16141-.0884a23.71818 23.71818 0 0 1 11.43429-3.047c.0852-.5405.5721-4.3911.6348-4.9103a24.07963 24.07963 0 0 1 -10.2302-5.8962l-.1095-.1298.0365-.2059a18.28033 18.28033 0 0 1 1.278-4.6872l.0608-.1785.1928-.0547a23.3289 23.3289 0 0 1 11.7822-.0489c.2191-.4797 1.6574-3.9517 1.8747-4.4731a23.8771 23.8771 0 0 1 -8.3562-8.3386l-.0913-.2059.0913-.1938a25.64275 25.64275 0 0 1 2.406-4.1616l.132-.1654h.2211a23.51009 23.51009 0 0 1 11.3683 3.046c.3308-.3966 2.7469-3.6637 3.07541-4.0978a23.62114 23.62114 0 0 1 -5.85451-10.2327l-.0407-.1559.07721-.1604a24.87767 24.87767 0 0 1 3.481-3.4517l.17459-.1086.1642.0325a23.57316 23.57316 0 0 1 10.2183 5.9055c.41791-.3327 3.2946-2.549 3.7205-2.8726a23.10761 23.10761 0 0 1 -3.0834-11.0846v-.5396l.1825-.1268a20.43511 20.43511 0 0 1 4.20331-2.418l.138-.0873.21689.0943a24.02493 24.02493 0 0 1 8.3237 8.3155c.5051-.1898 4.2437-1.8136 4.7571-2.0186a22.902 22.902 0 0 1 -.7628-5.9258 20.2813 20.2813 0 0 1 .79511-5.8442l.02639-.2253.1928-.0508a23.19585 23.19585 0 0 1 4.6333-1.2637l.2274-.0285.1643.142a23.62178 23.62178 0 0 1 5.9155 10.2273c.5476-.0557 4.4771-.5506 5.0026-.646a23.51585 23.51585 0 0 1 3.1159-11.3563l.0831-.1683.2008-.0549a23.56807 23.56807 0 0 1 4.8445 0l.1805.0549.1136.1683a22.439 22.439 0 0 1 3.05931 11.3198c.59019.1319 4.42839.6268 4.97619.6825a23.74 23.74 0 0 1 5.94381-10.2091l.12189-.1317.1783.0547a18.56289 18.56289 0 0 1 4.7147 1.2598l.15611.062.063.2211a19.88484 19.88484 0 0 1 .81329 5.7864 26.50643 26.50643 0 0 1 -.81329 5.9663c.48689.1989 4.21939 1.761 4.73879 1.9781a23.53621 23.53621 0 0 1 8.2851-8.3155l.1865-.0943.1947.0873a21.21237 21.21237 0 0 1 4.181 2.4435l.1644.1013v.5031a23.4378 23.4378 0 0 1 -3.0632 11.1211c.41371.3236 3.4973 2.7345 3.9599 3.0895a23.15962 23.15962 0 0 1 10.2344-5.8739l.1623-.0892.16011.1704a20.29111 20.29111 0 0 1 3.40839 3.4496l.154.1624-.0649.1865a23.68168 23.68168 0 0 1 -5.90749 10.2163c.32469.4453 2.64559 3.5014 3.00239 3.9426a23.93326 23.93326 0 0 1 11.4172-2.9931h.1703l.1219.1643a20.41558 20.41558 0 0 1 2.43421 4.1607l.12179.2363-.12179.1776a24.34947 24.34947 0 0 1 -8.34151 8.3042c.2108.5263 1.6229 4.0114 1.8926 4.4995a23.46083 23.46083 0 0 1 11.7233 0l.211.0424.0814.204a22.18846 22.18846 0 0 1 1.2596 4.7084l.03061.1806-.14621.1451a23.22323 23.22323 0 0 1 -10.2122 5.9123c.0772.5377.5641 4.3424.65541 4.883a23.77754 23.77754 0 0 1 11.37459 3.0693l.2026.1196.0246.1928a18.175 18.175 0 0 1 .1378 2.4334m-112.3599-43.6309 6.1428 6.8428c.858.9227 1.8033.8094 3.045-.1614a46.40137 46.40137 0 0 1 56.7571 0c1.2251.9048 2.1442 1.0841 3.0429.1614l6.1467-6.8428c.6959-.7567.6959-1.7993-.6371-2.9151a59.95534 59.95534 0 0 0 -37.0022-12.9732 59.30725 59.30725 0 0 0 -36.917 13.0099c-1.3248 1.0791-1.2658 2.1217-.5782 2.8784m.416 28.7763c-.6778-.4382-1.3978-.9383-1.9881-.6766-.4808.145-.8318.6492-1.0833 1.4668a46.50643 46.50643 0 0 0 0 28.0203c.19471.635.4139 1.2679.9919 1.4282.47281.1968 1.1705 0 2.0795-.6268l19.01631-12.9547a2.30815 2.30815 0 0 0 1.136-1.8279 2.3371 2.3371 0 0 0 -1.136-1.8795zm4.1607-11.3362c.0871.6938.8765 1.048 1.5661 1.3714l20.7226 10.0673a2.41934 2.41934 0 0 0 2.2151.0679 2.36862 2.36862 0 0 0 1.0143-1.9262l1.6737-22.9885c.0912-1.1107-.065-1.7619-.4645-2.1028a2.02851 2.02851 0 0 0 -1.7102-.1561 46.54814 46.54814 0 0 0 -24.3051 14.0259c-.5761.6514-.8439 1.1989-.712 1.6411m.3002 52.5662a2.27529 2.27529 0 0 0 .7687 1.4056 45.69232 45.69232 0 0 0 24.2868 14.012 1.86157 1.86157 0 0 0 1.698-.0569c.4484-.3346.5763-1.0244.501-2.1098 0-.0344-1.6877-23.0372-1.6877-23.0372a2.24567 2.24567 0 0 0 -1.0122-1.8887 2.34678 2.34678 0 0 0 -2.2173.0143l-20.7001 10.0762c-.7223.3367-1.5054.7162-1.613 1.3938 0 .0445-.0242.1318-.0242.1907m32.6427-11.5856a14.86491 14.86491 0 1 0 -14.8476-14.8457 14.86145 14.86145 0 0 0 14.8476 14.8457m6.28071 26.6117a2.07746 2.07746 0 0 0 1.81149.1357 46.21755 46.21755 0 0 0 24.2361-13.9954c.4221-.489.8845-.9921.7466-1.5499-.1298-.5356-.58419-1.0204-1.5499-1.475l-20.7549-10.072a2.40194 2.40194 0 0 0 -2.1849-.0407 2.3445 2.3445 0 0 0 -1.0386 1.9495l-1.6777 22.9743c-.01619.7527-.1055 1.6107.41181 2.0735m30.94879-26.7781c.6166.3997 1.3307.8845 1.98.6592.4401-.1339.8196-.6168 1.063-1.4868a46.04821 46.04821 0 0 0 0-27.9931 2.20668 2.20668 0 0 0 -.9737-1.4699c-.5175-.1855-1.1687.0274-2.0997.6594l-19.0307 12.9396a2.26806 2.26806 0 0 0 -1.1116 1.8682 2.24355 2.24355 0 0 0 1.1116 1.8564zm-4.1953-41.1813a2.03429 2.03429 0 0 0 -.7688-1.4331 45.77854 45.77854 0 0 0 -24.2888-14.0301 1.782 1.782 0 0 0 -1.639.1046c-.4465.3568-.5742 1.0466-.48489 2.0792l1.64119 23.0393a2.06185 2.06185 0 0 0 3.2255 1.8288l20.7488-10.0145c.6654-.3226 1.4219-.6745 1.566-1.3835a.48632.48632 0 0 0 0-.1907m-88.59449 41.1184 8.83069-2.5642a2.12526 2.12526 0 0 0 1.4444-2.191c-3.1707-16.448.8571-29.7822 10.4981-40.4712a2.02869 2.02869 0 0 0 .1483-3.0977l-6.4207-6.453c-.62279-.7141-1.7569-.7141-2.7306.2789-12.3037 12.9497-18.5173 32.8244-13.9591 53.1432a1.68424 1.68424 0 0 0 2.18891 1.355m109.78159 4.7267-8.8529-3.0226c-.4626-.1725-1.6716-.1725-2.3045 1.3854a46.48428 46.48428 0 0 1 -86.152-.2677 1.79184 1.79184 0 0 0 -2.2233-1.1177l-8.8043 3.0226a1.67658 1.67658 0 0 0 -1.02859 2.4161 59.27014 59.27014 0 0 0 110.40849-.0932 1.64308 1.64308 0 0 0 -1.0429-2.3229m-10.2325-59.3141a1.70712 1.70712 0 0 0 -2.7184-.1635l-6.3982 6.4268a2.02689 2.02689 0 0 0 .1257 3.0977c9.6564 10.689 13.6914 23.9946 10.5247 40.4712a2.10665 2.10665 0 0 0 1.4523 2.191l8.845 2.5642a1.6741 1.6741 0 0 0 2.18281-1.3896c4.55219-20.2842-1.67971-40.2258-14.01391-53.1978m-20.611-2.399 2.0368-3.9222 5.4958-2.5542c-.5782-.4148-1.2031-.7049-1.7834-1.0863l-3.7854 1.7244-.6977-4.1101c-.7911-.3742-1.2661-.5396-2.0895-.8723l1.1014 5.9785-2.0387 3.8747zm-10.29709 88.9697c-2.74081.6006-4.85051 1.0995-7.56891 1.5217l.2516 1.5783c1.0061-.1582 1.9252-.278 2.98631-.412l1.37109 7.6053 2.0186-.3812-1.637-7.5831c1.0385-.2576 1.9941-.5194 3.0264-.7609zm-26.93231 1.331v.513a2.91144 2.91144 0 0 1 -2.3775 2.6922l.3206 4.3859a12.418 12.418 0 0 1 -2.049-.649l-.073-4.1263-1.8541-.7934-1.5033 3.6414a13.84111 13.84111 0 0 1 -1.8096-.6876l1.9049-4.4305.22731-.5457 1.54989-3.6557 4.2216 1.629a2.231 2.231 0 0 1 1.4422 2.0267m-1.7689 0a.78719.78719 0 0 0 -.4869-.6228l-2.3611-.8704-.5337 1.4932-.1886.5457-.0164.0344 2.1524.8054c.5904.2616 1.16051-.2637 1.36551-.8398a.7833.7833 0 0 0 .06879-.5457m28.6443-94.649c-.7546-.219-1.3124-.3126-2.1423-.5487l1.5296-5.2166 1.1177-3.7187c1.613.4008 3.1466.9242 4.6803 1.4233a2.45752 2.45752 0 0 1 1.422 2.2954 3.07814 3.07814 0 0 1 -2.08339 3.2874l.558 4.2042c-.67361-.2789-1.17061-.4878-1.917-.781l-.48691-3.6738-1.7996-.5528zm1.2922-4.9204 2.1078.6795c.5761.1654 1.33891-.7375 1.33891-1.5244a.73965.73965 0 0 0 -.63291-.8176 16.64613 16.64613 0 0 0 -2.1625-.6492l-.4342 1.4668zm-10.23429 104.0446 2.03869 4.9457c-.6675.0283-1.2881.0954-1.8845.1643l-.6289-1.5986-4.0776.1137-.4666 1.6716c-.65109-.0569-1.2597-.0751-1.9069-.0751l1.75881-5.2216 1.25179-3.9622.0606-.1257 2.0794-.0933.1056.2517zm-1.23351 1.7993-.7303-1.7993-.7384-1.9476-.6411 1.9476-.6308 1.9189zm12.464-8.4006 3.118 8.9016c.60651-.2108 1.2577-.3955 1.8724-.6633l-3.0247-8.8612c-.8297.282-1.2111.3957-1.9657.6229m-45.2507-93.877-.5214-.9373c1.3714-.8692 2.8462-1.625 4.2683-2.3847 1.6735-.924 4.0348 1.3136 3.8685 3.322a2.12466 2.12466 0 0 1 -.3386 1.0012l3.422 2.4901c-.6449.3021-1.1339.5599-1.9027.8945l-2.9983-2.1908-1.6535.8854 1.76091 2.9122c-.68161.434-1.09531.704-1.89271 1.1685zm2.0651-.4424.2597.4424.9535 1.6482 1.9778-1.0386a.74592.74592 0 0 0 .3248-.6096c.0384-.8926-.60669-2.1018-1.544-1.5377-.7303.3814-1.1746.6451-1.9718 1.0953"/><path d="m315.60619 121.71211.2121 5.3804a1.604 1.604 0 0 1 -1.3554 1.6541c-3.1418.5044-8.1411 1.6407-13.0284 1.6407-13.2342 0-19.137-6.7927-19.137-22.0255h.0069c0-.112-.0069-.2169-.0069-.3287 0-15.2328 5.9028-22.0255 19.137-22.0255 4.8873 0 9.8866 1.1386 13.0284 1.6405a1.60032 1.60032 0 0 1 1.3554 1.652l-.2121 5.3804a1.62777 1.62777 0 0 1 -.543 1.1455 1.60443 1.60443 0 0 1 -1.2161.3855c-3.514-.315-7.7968-1.3622-12.4126-1.3622-6.84749 0-9.2754 3.4477-9.2754 13.1838 0 .3719.0091.7255.0114 1.0862.0046.2099.0046.4289.0137.6319.0091.3103.0205.6117.0367.9083.0112.2829.0249.5635.0456.8304.0091.1483.0203.2852.0319.4267.5909 7.0277 3.2012 9.6244 9.1361 9.6244 4.6158 0 8.8986-1.0474 12.4126-1.3576a1.60154 1.60154 0 0 1 1.2161.3832 1.63172 1.63172 0 0 1 .543 1.1455m-82.14-35.0085c-4.2875.2555-8.5018 2.7038-11.1257 4.5679v-2.6376a1.60971 1.60971 0 0 0 -1.6155-1.6086h-6.4755a1.60956 1.60956 0 0 0 -1.6154 1.6086v39.216a1.61166 1.61166 0 0 0 1.6154 1.611h6.4755a1.61181 1.61181 0 0 0 1.6155-1.611v-27.107c1.4601-1.2162 5.9803-4.6067 11.3675-5.0837a1.61068 1.61068 0 0 0 1.4695-1.6039v-5.7478a1.56484 1.56484 0 0 0 -.5113-1.1659 1.52813 1.52813 0 0 0 -1.2-.438m22.6301 24.3779c-3.8082.3582-5.6153 2.0969-5.6153 5.4488 0 2.0558.5658 5.5378 4.3399 5.5378a48.75533 48.75533 0 0 0 10.63049-1.7114v-9.7703zm19.05249-10.7082v28.1383a1.60751 1.60751 0 0 1 -1.8345 1.5972 11.97236 11.97236 0 0 1 -6.4184-2.6901c-.0663.0297-7.35169 2.9686-13.85929 2.9686-7.8379 0-12.3351-4.9468-12.3351-13.5946 0-8.4425 4.1162-12.1777 14.2107-12.9329l10.53919-.8466v-2.5577c0-3.2378-1.9235-5.0997-5.27519-5.0997-4.6161 0-11.2058.5407-14.7195.8557a1.60165 1.60165 0 0 1 -1.2162-.3855 1.638 1.638 0 0 1 -.5452-1.1455l-.2101-5.3804a1.60243 1.60243 0 0 1 1.3554-1.652 123.99361 123.99361 0 0 1 15.8466-1.6405c9.86839 0 14.46159 4.5681 14.46159 14.3657m-92.20478 10.7082c-3.8059.3582-5.6153 2.0969-5.6153 5.4488 0 2.0558.5681 5.5378 4.3398 5.5378a48.726 48.726 0 0 0 10.6306-1.7114v-9.7703zm19.0526-10.7082v28.1383a1.60751 1.60751 0 0 1 -1.8345 1.5972 11.98139 11.98139 0 0 1 -6.4186-2.6901c-.0639.0297-7.3517 2.9686-13.8591 2.9686-7.8356 0-12.3305-4.9468-12.3305-13.5946 0-8.4425 4.1139-12.1777 14.2059-12.9329l10.5393-.8466v-2.5577c0-3.2378-1.9235-5.0997-5.2731-5.0997-4.6181 0-11.2078.5407-14.7171.8557a1.60154 1.60154 0 0 1 -1.2161-.3855 1.62748 1.62748 0 0 1 -.5431-1.1455l-.2122-5.3804a1.60226 1.60226 0 0 1 1.3554-1.652 123.90778 123.90778 0 0 1 15.8444-1.6405c9.8661 0 14.4593 4.5681 14.4593 14.3657m-134.64049-20.23431h-3.5436a38.81348 38.81348 0 0 0 -7.3608.527v16.7638c1.8892.1303 5.5331.324 10.4344.2717 6.3205-.0663 10.24039-3.4226 10.24039-8.7504 0-4.2602-2.56249-8.8121-9.77039-8.8121m20.39189 47.05841a1.63474 1.63474 0 0 1 -.1211 1.5334 1.60891 1.60891 0 0 1 -1.3552.7301h-7.5228a1.60562 1.60562 0 0 1 -1.4672-.9585l-9.63359-21.67641c-4.7938-.0341-8.9488-.2898-11.1964-.4472v21.4711a1.6039 1.6039 0 0 1 -1.60621 1.611h-6.7289a1.60979 1.60979 0 0 1 -1.6132-1.611v-54.37359a1.60872 1.60872 0 0 1 1.4353-1.5996 167.37139 167.37139 0 0 1 18.0964-1.0745c.88291 0 1.35521.0045 1.35521.0045 16.55159 0 20.03379 9.7795 20.03379 17.971 0 6.8427-3.2698 11.785-9.9896 15.1187zm260.17209-4.6251.276 5.3301a1.62122 1.62122 0 0 1 -1.3073 1.6634 48.41681 48.41681 0 0 1 -7.2971.9219c-9.7749 0-12.75469-3.7443-12.75469-15.9904v-18.7149h-3.74891a1.61367 1.61367 0 0 1 -1.6134-1.6155v-5.533a1.60785 1.60785 0 0 1 1.6134-1.6086h3.74891v-6.5806a1.60606 1.60606 0 0 1 1.22289-1.5676l6.4777-1.5767a1.61434 1.61434 0 0 1 1.9965 1.563v8.1619h9.8618a1.60344 1.60344 0 0 1 1.6132 1.6086v5.533a1.60923 1.60923 0 0 1 -1.6132 1.6155h-9.8618v17.3527c0 5.9986.2101 8.0818 4.4198 8.0818 1.5516 0 3.9793-.1141 5.2868-.1757a1.62766 1.62766 0 0 1 1.6794 1.5311m-225.93709-14.5392c0-9.4943-2.5806-13.1838-9.1863-13.1838-6.8475 0-9.2729 3.4477-9.2729 13.1838 0 8.8257 1.4763 13.5969 9.2729 13.5969 7.6782 0 9.1863-4.9811 9.1863-13.5969m9.8594 0c0 15.4565-5.8733 22.3542-19.0457 22.3542-13.234 0-19.1413-6.8977-19.1413-22.3542 0-15.2328 5.9073-22.0255 19.1413-22.0255 12.9924 0 19.0457 6.9912 19.0457 22.0255m30.6004 14.5392.276 5.3301a1.61921 1.61921 0 0 1 -1.3073 1.6634 48.36538 48.36538 0 0 1 -7.3017.9219c-9.7703 0-12.7503-3.7443-12.7503-15.9904v-18.7149h-3.7466a1.61405 1.61405 0 0 1 -1.6155-1.6155v-5.533a1.60825 1.60825 0 0 1 1.6155-1.6086h3.7466v-6.5806a1.60717 1.60717 0 0 1 1.2185-1.5676l6.4848-1.5767a1.61587 1.61587 0 0 1 1.994 1.563v8.1619h9.8594a1.604 1.604 0 0 1 1.6155 1.6086v5.533a1.60973 1.60973 0 0 1 -1.6155 1.6155h-9.8594v17.3527c0 5.9986.2123 8.0818 4.4152 8.0818 1.5585 0 3.9839-.1141 5.2914-.1757a1.62786 1.62786 0 0 1 1.6794 1.5311"/><path d="m60.7417 146.15527a6.96282 6.96282 0 0 1 6.19824 3.73438l-2.0791 1.57812a4.96063 4.96063 0 0 0 -4.27295-2.73339c-6.00586 0-9.81689 7.00683-9.81689 13.12792 0 4.582 1.88623 7.89258 6.4292 7.89258a8.16391 8.16391 0 0 0 5.35107-2.27148l1.34717 1.9248a10.77773 10.77773 0 0 1 -7.23731 2.92578c-5.7749 0-8.97021-4.1582-8.97021-10.20214 0-7.93067 5.23584-15.97657 13.05078-15.97657z"/><path d="m72.353 144.46191h2.96435l-4.8125 23.9834a3.271 3.271 0 0 0 -.07666.73145.618.618 0 0 0 .6543.69336 1.59284 1.59284 0 0 0 .61621-.11524l.03809 2.27149a4.85375 4.85375 0 0 1 -1.84766.30761 2.21587 2.21587 0 0 1 -2.50244-2.42578 7.358 7.358 0 0 1 .231-1.61621z"/><path d="m89.69238 171.87207h-2.42529l.30762-2.84863h-.15381c-2.04053 1.80957-4.19629 3.31054-6.46778 3.31054-3.15673 0-4.42724-1.80957-4.42724-4.6582a10.45152 10.45152 0 0 1 .3081-2.5791l2.38672-11.93457h2.96436l-2.34815 11.5498a11.33834 11.33834 0 0 0 -.3081 2.19434c0 1.88574.84717 2.88672 2.772 2.88672 1.46289 0 3.27246-1.03906 5.54346-3.3877l2.65673-13.24316h2.92578z"/><path d="m95.2373 171.87207 5.4668-27.41016h2.96436l-1.50147 7.31446-.84717 3.69531h.07715c1.84815-1.501 4.04248-2.77148 6.35205-2.77148 3.27246 0 5.38965 2.38671 5.38965 6.77539 0 7.19921-4.92773 12.85839-10.08642 12.85839a5.01186 5.01186 0 0 1 -4.50391-2.81054h-.11572l-.77 2.34863zm5.65918-13.667-1.771 8.89355c1.03955 1.96289 2.34863 2.77149 3.81152 2.77149 3.73438 0 7.16065-4.77344 7.16065-9.97071 0-3.15722-1.30909-4.73535-3.42627-4.73535-1.73238.00001-4.0039 1.15529-5.7749 3.04103z"/><path d="m123.57275 164.82715c0-7.084 4.96631-12.12695 10.08643-12.12695 4.04248 0 6.69873 2.84863 6.69873 7.50683 0 7.084-5.00488 12.12695-10.125 12.12695-4.04248.00002-6.66016-2.84863-6.66016-7.50683zm2.96436-.19238c0 3.38769 1.42432 5.23535 4.00391 5.23535 3.46484 0 6.814-4.23438 6.814-9.47071 0-3.38769-1.42432-5.27441-4.00391-5.27441-3.42631 0-6.814 4.27344-6.814 9.50977z"/><path d="m144.13574 153.35449 2.50244-.19238.61573-3.11816c.77-3.77344 2.772-6.04395 5.92871-6.04395a6.32009 6.32009 0 0 1 3.311.92383l-1.03952 2.11717a3.70239 3.70239 0 0 0 -2.07861-.6543c-1.69385 0-2.7334 1.38574-3.15723 3.58008l-.6543 3.19531h3.77295l-.46191 2.38672h-3.81152l-3.27248 16.32326h-2.92579l3.27247-16.32324h-2.4253z"/><path d="m165.84912 146.61719h6.73731c4.85058 0 7.81494 1.9248 7.81494 5.582 0 3.42676-2.84864 5.69824-5.62061 6.31445l-.03857.15332c2.61767.61621 4.6582 2.2334 4.6582 5.12012 0 5.62109-4.50439 8.085-10.50977 8.085h-8.08447zm2.772 22.90625c4.812 0 7.85352-1.65528 7.85352-5.582 0-2.541-2.04053-4.27344-5.7749-4.27344h-4.46533l-2.002 9.85547zm1.65528-12.04981c4.8125 0 7.08349-2.002 7.08349-4.85058 0-2.30957-1.69384-3.65723-5.50488-3.65723h-3.50342l-1.69385 8.50781z"/><path d="m186.27686 153.16211h2.96435l-3.773 18.71h-2.92578zm.61572-5.62109a2.23389 2.23389 0 0 1 2.23291-2.23243 1.76968 1.76968 0 0 1 1.88672 1.77051 2.20138 2.20138 0 0 1 -2.23291 2.19434 1.73929 1.73929 0 0 1 -1.88672-1.73244z"/><path d="m194.66992 153.16211h2.42529l-.42333 3.58008h.1538c1.50147-2.27149 3.50342-4.042 5.81348-4.042a4.26912 4.26912 0 0 1 1.771.34668l-1.03955 2.61718a3.65709 3.65709 0 0 0 -1.61719-.30761c-1.84766 0-3.92676 1.65527-5.50488 4.69628l-2.34864 11.81934h-2.92578z"/><path d="m207.35547 153.16211h2.42529l-.26953 2.81055h.1543c1.96338-1.84766 4.19629-3.27246 6.15967-3.27246 2.96435 0 4.042 1.61718 4.31152 3.65722 2.38721-2.27148 4.69678-3.65722 6.62158-3.65722 3.11865 0 4.42725 1.7705 4.42725 4.6582a13.00813 13.00813 0 0 1 -.30762 2.5791l-2.38721 11.93457h-2.96435l2.34863-11.5498a11.33849 11.33849 0 0 0 .30811-2.19434c0-1.88574-.88575-2.88672-2.7334-2.88672-1.07813 0-3.04151 1.03906-5.27442 3.3877l-2.65629 13.24316h-2.92578l2.30957-11.5498a11.30011 11.30011 0 0 0 .30811-2.19434c0-1.88574-.84668-2.88672-2.69483-2.88672-1.11621 0-3.07959 1.03906-5.27392 3.3877l-2.65674 13.24316h-2.92578z"/><path d="m237.48926 153.16211h2.96435l-3.773 18.71h-2.92578zm.61621-5.62109a2.23348 2.23348 0 0 1 2.23242-2.23243 1.76968 1.76968 0 0 1 1.88672 1.77051 2.20138 2.20138 0 0 1 -2.23291 2.19434 1.73888 1.73888 0 0 1 -1.88623-1.73244z"/><path d="m245.88232 153.16211h2.4253l-.26953 2.81055h.15429c2.11719-1.84766 4.19629-3.27246 6.54444-3.27246 3.15673 0 4.42724 1.7705 4.42724 4.6582a10.66054 10.66054 0 0 1 -.30761 2.5791l-2.38721 11.93457h-2.92578l2.31006-11.5498a11.33127 11.33127 0 0 0 .30761-2.19434c0-1.88574-.84668-2.88672-2.77148-2.88672-1.46289 0-3.27246 1.03906-5.6211 3.3877l-2.65625 13.24316h-2.92578z"/><path d="m279.76123 153.16211-3.92676 19.5957c-1.001 4.96582-4.08056 7.73828-8.77734 7.73828a10.29874 10.29874 0 0 1 -6.54492-2.58007l1.38623-2.04a8.129 8.129 0 0 0 5.27392 2.23242c3.19532 0 5.082-2.19434 5.89014-5.582l.92432-3.84961h-.11573a9.32328 9.32328 0 0 1 -6.352 3.00293c-3.15674 0-5.42822-2.2334-5.42822-6.583 0-6.85254 4.85059-12.39648 9.894-12.39648a5.05475 5.05475 0 0 1 4.50391 2.81054h.11572l.73145-2.34863zm-5.50488 12.78125 1.65527-8.00781c-1.15478-1.96289-2.38721-2.77149-3.81152-2.77149-3.61865 0-6.96778 4.62012-6.96778 9.50879 0 3.041 1.27 4.543 3.34913 4.543a8.07717 8.07717 0 0 0 5.7749-3.27249z"/><path d="m287.03809 144.46191h2.96391l-1.84765 9.04688-.61621 2.34863h.15429c2.11719-1.80957 4.15821-3.15722 6.42969-3.15722 3.15625 0 4.42676 1.7705 4.42676 4.6582a10.68454 10.68454 0 0 1 -.30762 2.5791l-2.38672 11.93457h-2.92578l2.30957-11.5498a11.33141 11.33141 0 0 0 .30762-2.19434c0-1.88574-.84668-2.88672-2.77149-2.88672-1.46289 0-3.27246 1.03906-5.62109 3.3877l-2.65625 13.24316h-2.92578z"/><path d="m311.54688 152.7002a5.01331 5.01331 0 0 1 4.50488 2.81054h.15332l.73144-2.34863h2.3877l-3.73438 18.71h-2.42578l.30762-2.77148h-.15332a9.31773 9.31773 0 0 1 -6.50586 3.23339c-3.27246 0-5.39062-2.38671-5.39062-6.77539 0-7.19925 4.92773-12.85843 10.125-12.85843zm2.23339 13.5898 1.69336-8.35449c-1.07715-1.96289-2.38672-2.77149-3.81054-2.77149-3.73438 0-7.19922 4.77344-7.19922 9.93262 0 3.2334 1.34765 4.77344 3.42578 4.77344 1.96387.00004 4.04297-1.15524 5.89062-3.58008z"/><path d="m324.8291 153.16211h2.42481l-.26953 2.81055h.15429c1.96289-1.84766 4.19629-3.27246 6.15918-3.27246 2.96485 0 4.043 1.61718 4.3125 3.65722 2.38672-2.27148 4.69629-3.65722 6.6211-3.65722 3.11816 0 4.42773 1.7705 4.42773 4.6582a13.01412 13.01412 0 0 1 -.30859 2.5791l-2.38672 11.93457h-2.96387l2.34766-11.5498a11.26885 11.26885 0 0 0 .30859-2.19434c0-1.88574-.88574-2.88672-2.7334-2.88672-1.07812 0-3.041 1.03906-5.27441 3.3877l-2.65625 13.24316h-2.92578l2.30957-11.5498a11.34543 11.34543 0 0 0 .30859-2.19434c0-1.88574-.84766-2.88672-2.69531-2.88672-1.11621 0-3.08008 1.03906-5.27442 3.3877l-2.65625 13.24316h-2.92578z"/></g></svg>
